<svg xmlns="http://www.w3.org/2000/svg" viewBox="0 0 500 500"><g id="freepik--Machine--inject-37"><g id="freepik--machine--inject-37"><g id="freepik--Print--inject-37"><path d="M415.71,338.3a12.89,12.89,0,0,1-5.91-1.44l-.11,0L355,305.2a13.26,13.26,0,0,0,4.09.66,12.93,12.93,0,0,0,6.57-1.79l54.45-31.43,56.4,32.56-54.31,31.36a12.74,12.74,0,0,1-6.44,1.74Z" style="fill:#fff"></path><path d="M420.06,272.79l56.13,32.41-54.11,31.24a12.58,12.58,0,0,1-6.37,1.73,12.91,12.91,0,0,1-5.87-1.43l-.07,0-1-.61-.07-.05L356,305.62A13.52,13.52,0,0,0,359,306a13.2,13.2,0,0,0,6.64-1.8l37.07-21.41,17.31-10m0-.31-17.44,10.07L365.55,304a12.93,12.93,0,0,1-6.51,1.77,13.09,13.09,0,0,1-6-1.44l55.43,32,.05,0,1.07.62.1,0a12.87,12.87,0,0,0,12.47-.31l54.52-31.47-56.67-32.72Z" style="fill:#e0e0e0"></path><g id="freepik--Chart--inject-37"><path d="M418.5,306.92l11,6.32-2.11,9c-7.51-.71-13.72-5.35-12.65-10.39C415.16,309.86,416.14,308.4,418.5,306.92Z" style="fill:#407BFF"></path><path d="M418.5,306.92l11,6.32-2.11,9c-7.51-.71-13.72-5.35-12.65-10.39C415.16,309.86,416.14,308.4,418.5,306.92Z" style="fill:#fff;opacity:0.2"></path><path d="M445.45,308.55c4.14,4.42,1.55,10-6,12.61a25.39,25.39,0,0,1-9.7,1.33l2-9.18Z" style="fill:#407BFF"></path><path d="M445.45,308.55c4.14,4.42,1.55,10-6,12.61a25.39,25.39,0,0,1-9.7,1.33l2-9.18Z" style="fill:#fff;opacity:0.30000000000000004"></path><path d="M444.63,307.81l-13.14,4.56-3.2-8.66C434.74,303.09,441,304.66,444.63,307.81Z" style="fill:#407BFF"></path><path d="M426.62,304l2.88,7.81-9.78-5.65A20,20,0,0,1,426.62,304Z" style="fill:#407BFF"></path><path d="M426.62,304l2.88,7.81-9.78-5.65A20,20,0,0,1,426.62,304Z" style="fill:#fff;opacity:0.5"></path></g><path d="M413.62,304.5a.54.54,0,0,1-.27-.07l-17.44-10.07a.53.53,0,0,1,.54-.92l17.44,10.06a.53.53,0,0,1,.2.73A.55.55,0,0,1,413.62,304.5Z" style="fill:#455a64"></path><path d="M409.26,307a.48.48,0,0,1-.26-.07l-17.44-10.06a.54.54,0,1,1,.53-.93L409.53,306a.53.53,0,0,1-.27,1Z" style="fill:#455a64"></path><path d="M418,302a.48.48,0,0,1-.26-.07l-17.45-10.06a.55.55,0,0,1-.19-.74.54.54,0,0,1,.73-.19L418.25,301a.53.53,0,0,1,.2.73A.53.53,0,0,1,418,302Z" style="fill:#455a64"></path><path d="M422.34,299.46a.48.48,0,0,1-.26-.07l-17.44-10.06a.54.54,0,0,1,.53-.93l17.44,10.06a.53.53,0,0,1-.27,1Z" style="fill:#455a64"></path><path d="M457.21,309.49a.56.56,0,0,1-.27-.08L413.41,284.3a.55.55,0,0,1-.19-.74.53.53,0,0,1,.73-.19l43.53,25.11a.55.55,0,0,1,.19.74A.53.53,0,0,1,457.21,309.49Z" style="fill:#455a64"></path><path d="M461.57,307a.52.52,0,0,1-.27-.07l-43.58-25.16a.54.54,0,0,1,.53-.93L461.84,306a.55.55,0,0,1,.19.74A.53.53,0,0,1,461.57,307Z" style="fill:#455a64"></path><path d="M402.62,325.36V275A12.92,12.92,0,0,0,396.7,264l-1.19-.69-55.46-32A12.89,12.89,0,0,1,346,242.24v50.4a12.94,12.94,0,0,0,5.88,10.92l.07,0,1.18.68,55.43,32A12.94,12.94,0,0,1,402.62,325.36Z" style="fill:#e0e0e0"></path><path d="M402.62,325.36V275A12.92,12.92,0,0,0,396.7,264l-1.19-.69-55.46-32A12.89,12.89,0,0,1,346,242.24v50.4a12.94,12.94,0,0,0,5.88,10.92l.07,0,1.18.68,55.43,32A12.94,12.94,0,0,1,402.62,325.36Z" style="opacity:0.15"></path><path d="M307,242.29l19.45-11.23a12.76,12.76,0,0,1,6.45-1.75,13,13,0,0,1,5.78,1.38l54.95,31.72a13.2,13.2,0,0,0-4.08-.66,13,13,0,0,0-6.58,1.8L363.4,274.84Z" style="fill:#fff"></path><path d="M332.9,229.44a12.79,12.79,0,0,1,5.71,1.36l1.31.75L392.63,262a12.85,12.85,0,0,0-3.08-.37,13.14,13.14,0,0,0-6.65,1.81l-19.5,11.25-17.3-10-38.83-22.41,19.24-11.11a12.69,12.69,0,0,1,6.39-1.74m0-.27a13,13,0,0,0-6.52,1.77l-19.65,11.35L346,264.93,363.4,275,383,263.66a12.88,12.88,0,0,1,6.51-1.77,13,13,0,0,1,6,1.45l-55.46-32-1.31-.75a13,13,0,0,0-5.84-1.4Z" style="fill:#e0e0e0"></path></g><path d="M380.83,370.63q-1.47-4.19-8.71-5L276.22,421V431Z" style="fill:#455a64"></path><path d="M171.61,370.63q1.48-4.19,8.72-5L276.22,421V431Z" style="fill:#37474f"></path><polygon points="276.22 420.96 276.22 275 250.07 244.8 206.48 219.63 206.48 380.69 276.22 420.96" style="fill:#407BFF"></polygon><polygon points="276.22 420.96 276.22 275 250.07 244.8 206.48 219.63 206.48 380.69 276.22 420.96" style="fill:#fff;opacity:0.45"></polygon><polygon points="276.22 420.96 372.12 365.59 372.12 219.63 276.22 275 276.22 420.96" style="fill:#407BFF"></polygon><polygon points="276.22 420.96 372.12 365.59 372.12 219.63 276.22 275 276.22 420.96" style="fill:#fff;opacity:0.65"></polygon><polygon points="372.12 219.63 345.96 189.44 302.37 164.27 206.48 219.63 250.07 244.8 276.22 275 372.12 219.63" style="fill:#407BFF"></polygon><polygon points="372.12 219.63 345.96 189.44 302.37 164.27 206.48 219.63 250.07 244.8 276.22 275 372.12 219.63" style="fill:#fff;opacity:0.75"></polygon><polygon points="345.96 189.44 250.07 244.8 206.48 219.63 302.37 164.27 345.96 189.44" style="fill:#fff;opacity:0.25"></polygon><path d="M359.1,268l-10.26,5.89a6.45,6.45,0,0,0-2.91,5v5.88c0,1.86,1.31,2.61,2.91,1.68l10.26-5.89a6.42,6.42,0,0,0,2.91-5v-5.88C362,267.83,360.71,267.08,359.1,268Z" style="fill:#455a64"></path><path d="M356.34,274.64l-1.34-.77h0a1.78,1.78,0,0,0-1.78.18,5.61,5.61,0,0,0-2.52,4.38,1.78,1.78,0,0,0,.73,1.63h0l1.24.71.22-.38a2.47,2.47,0,0,0,.73-.28,5.61,5.61,0,0,0,2.52-4.38,2.49,2.49,0,0,0-.08-.64Z" style="fill:#407BFF"></path><path d="M356.34,274.64l-1.34-.77h0a1.78,1.78,0,0,0-1.78.18,5.61,5.61,0,0,0-2.52,4.38,1.78,1.78,0,0,0,.73,1.63h0l1.24.71.22-.38a2.47,2.47,0,0,0,.73-.28,5.61,5.61,0,0,0,2.52-4.38,2.49,2.49,0,0,0-.08-.64Z" style="opacity:0.2"></path><path d="M354.5,274.79a5.56,5.56,0,0,0-2.53,4.38c0,1.61,1.13,2.26,2.53,1.46a5.61,5.61,0,0,0,2.52-4.38C357,274.63,355.89,274,354.5,274.79Z" style="fill:#407BFF"></path><path d="M354.5,274.79a5.56,5.56,0,0,0-2.53,4.38c0,1.61,1.13,2.26,2.53,1.46a5.61,5.61,0,0,0,2.52-4.38C357,274.63,355.89,274,354.5,274.79Z" style="fill:#fff;opacity:0.25"></path><path d="M359.1,243l-10.26,5.9a6.45,6.45,0,0,0-2.91,5v5.88c0,1.86,1.31,2.61,2.91,1.68l10.26-5.89a6.44,6.44,0,0,0,2.91-5v-5.89C362,242.81,360.71,242.06,359.1,243Z" style="fill:#455a64"></path><path d="M356.34,249.62l-1.34-.77h0a1.78,1.78,0,0,0-1.78.18,5.59,5.59,0,0,0-2.52,4.38,1.78,1.78,0,0,0,.73,1.63h0l1.24.71.22-.37a2.47,2.47,0,0,0,.73-.28,5.61,5.61,0,0,0,2.52-4.38,2.63,2.63,0,0,0-.08-.65Z" style="fill:#407BFF"></path><path d="M356.34,249.62l-1.34-.77h0a1.78,1.78,0,0,0-1.78.18,5.59,5.59,0,0,0-2.52,4.38,1.78,1.78,0,0,0,.73,1.63h0l1.24.71.22-.37a2.47,2.47,0,0,0,.73-.28,5.61,5.61,0,0,0,2.52-4.38,2.63,2.63,0,0,0-.08-.65Z" style="opacity:0.2"></path><path d="M354.5,249.77a5.56,5.56,0,0,0-2.53,4.37c0,1.62,1.13,2.27,2.53,1.46a5.57,5.57,0,0,0,2.52-4.37C357,249.61,355.89,249,354.5,249.77Z" style="fill:#407BFF"></path><path d="M354.5,249.77a5.56,5.56,0,0,0-2.53,4.37c0,1.62,1.13,2.27,2.53,1.46a5.57,5.57,0,0,0,2.52-4.37C357,249.61,355.89,249,354.5,249.77Z" style="fill:#fff;opacity:0.25"></path><path d="M337.69,253.05l-49.75,28.7a3.55,3.55,0,0,0-1.61,2.79v13.74c0,1,.72,1.44,1.61.93l49.75-28.7a3.55,3.55,0,0,0,1.61-2.79V254C339.3,253,338.58,252.53,337.69,253.05Z" style="fill:#455a64"></path><path d="M336.28,259.1a3.46,3.46,0,0,1-1.61,2.68L291,287c-.89.51-1.61.14-1.61-.82a3.48,3.48,0,0,1,1.61-2.68l43.71-25.2C335.56,257.77,336.28,258.14,336.28,259.1Z" style="fill:#407BFF"></path><path d="M336.28,259.1a3.46,3.46,0,0,1-1.61,2.68L291,287c-.89.51-1.61.14-1.61-.82a3.48,3.48,0,0,1,1.61-2.68l43.71-25.2C335.56,257.77,336.28,258.14,336.28,259.1Z" style="fill:#fff;opacity:0.45"></path><path d="M291,294c-.88.52-1.61.15-1.61-.81a3.51,3.51,0,0,1,1.61-2.69l19.56-11.27v3.47Z" style="fill:#407BFF"></path><path d="M336.27,266.08a3.45,3.45,0,0,1-1.61,2.69l-24.14,13.9v-3.48l24.14-13.92C335.56,264.75,336.27,265.12,336.27,266.08Z" style="fill:#263238"></path><path d="M337.69,278.15l-49.75,28.7a3.55,3.55,0,0,0-1.61,2.79v13.74c0,1,.72,1.44,1.61.93l49.75-28.7a3.58,3.58,0,0,0,1.61-2.79V279.08C339.3,278.05,338.58,277.63,337.69,278.15Z" style="fill:#455a64"></path><path d="M336.28,284.2a3.48,3.48,0,0,1-1.61,2.68L291,312.08c-.89.52-1.61.15-1.61-.81a3.46,3.46,0,0,1,1.61-2.68l43.71-25.21C335.56,282.87,336.28,283.24,336.28,284.2Z" style="fill:#407BFF"></path><path d="M336.28,284.2a3.48,3.48,0,0,1-1.61,2.68L291,312.08c-.89.52-1.61.15-1.61-.81a3.46,3.46,0,0,1,1.61-2.68l43.71-25.21C335.56,282.87,336.28,283.24,336.28,284.2Z" style="fill:#fff;opacity:0.45"></path><path d="M291,319.07c-.88.52-1.61.15-1.61-.81a3.51,3.51,0,0,1,1.61-2.69l13.51-7.79v3.49Z" style="fill:#407BFF"></path><path d="M336.27,291.18a3.45,3.45,0,0,1-1.61,2.69l-30.19,17.4v-3.49l30.19-17.41C335.56,289.85,336.27,290.22,336.27,291.18Z" style="fill:#263238"></path><path d="M356.3,297.65a1.61,1.61,0,0,0-1.64.16l-65.09,37.58a5.13,5.13,0,0,0-2.32,4v55a1.62,1.62,0,0,0,.68,1.5l2.06,1.19a1.62,1.62,0,0,0,1.63-.16l65.1-37.58a5.17,5.17,0,0,0,2.32-4v-55a1.62,1.62,0,0,0-.67-1.49Z" style="fill:#407BFF"></path><path d="M356.3,297.65a1.61,1.61,0,0,0-1.64.16l-65.09,37.58a5.13,5.13,0,0,0-2.32,4v55a1.62,1.62,0,0,0,.68,1.5l2.06,1.19a1.62,1.62,0,0,0,1.63-.16l65.1-37.58a5.17,5.17,0,0,0,2.32-4v-55a1.62,1.62,0,0,0-.67-1.49Z" style="fill:#fff;opacity:0.45"></path><path d="M291.62,336.57,356.72,299c1.28-.74,2.32-.14,2.32,1.34v55a5.17,5.17,0,0,1-2.32,4L291.62,397c-1.28.74-2.32.14-2.32-1.34v-55A5.13,5.13,0,0,1,291.62,336.57Z" style="fill:#407BFF"></path><path d="M291.62,336.57,356.72,299c1.28-.74,2.32-.14,2.32,1.34v55a5.17,5.17,0,0,1-2.32,4L291.62,397c-1.28.74-2.32.14-2.32-1.34v-55A5.13,5.13,0,0,1,291.62,336.57Z" style="fill:#fff;opacity:0.35000000000000003"></path><path d="M289.92,397.08a.82.82,0,0,0,.35.17,1.69,1.69,0,0,1-.28-.12Z" style="fill:#407BFF"></path><path d="M290.74,397.28a2.37,2.37,0,0,0,.34-.08A2.37,2.37,0,0,1,290.74,397.28Z" style="fill:#407BFF"></path><path d="M290.42,397.27a1.69,1.69,0,0,0,.32,0A1.69,1.69,0,0,1,290.42,397.27Z" style="fill:#407BFF"></path><path d="M289.3,395.63a1.81,1.81,0,0,0,.51,1.39l-1.89-1.08a1.6,1.6,0,0,1-.67-1.49v-55a4.66,4.66,0,0,1,.68-2.29l2,1.18a4.78,4.78,0,0,0-.67,2.3Z" style="fill:#407BFF;opacity:0.5"></path><path d="M335.41,324.77c-3.84-2.22-8.8-1.8-14,1.17-10,5.76-17.78,19.28-17.78,30.79,0,5.95,2.12,10.45,6,12.67a10.71,10.71,0,0,0,5.41,1.41,17.33,17.33,0,0,0,8.54-2.58c10-5.75,17.78-19.28,17.78-30.79C341.38,331.49,339.26,327,335.41,324.77Zm1.68,12.67a29,29,0,0,1-2.29,10.68c-3.1.49-8.23-.2-10.61-1.47a63.82,63.82,0,0,1,11.49-15.6A13.17,13.17,0,0,1,337.09,337.44ZM330,327.66a6.44,6.44,0,0,1,3.29.83,5.74,5.74,0,0,1,.76.53,68.28,68.28,0,0,0-10.81,14,42.34,42.34,0,0,1,.23-13.23l.15-.1A13.08,13.08,0,0,1,330,327.66Zm-9.48,4.15a49.32,49.32,0,0,0,.47,13.8,20.59,20.59,0,0,1-8.55-4A34.54,34.54,0,0,1,320.5,331.81Zm-9.3,12.12a24.17,24.17,0,0,0,8.52,4.08,78.07,78.07,0,0,0-10.89,13.92,14.44,14.44,0,0,1-.86-5.2A30.44,30.44,0,0,1,311.2,343.93Zm.59,21.75a6.19,6.19,0,0,1-1.46-1.21,76.64,76.64,0,0,1,10.32-13.67,44.87,44.87,0,0,0,.22,14C317.33,366.71,314.13,367,311.79,365.68Zm11.46-2.33a45.46,45.46,0,0,1,.25-14.14,22.69,22.69,0,0,0,8.82,1.67c.43,0,.85,0,1.26,0A34.42,34.42,0,0,1,323.25,363.35Z" style="fill:#407BFF;opacity:0.5"></path><path d="M325.81,350.17c-4,0-10.13-2.85-13.33-6.23l1.88-1.79c3,3.2,8.46,5.42,11.45,5.42Z" style="fill:#37474f"></path><path d="M312.68,367.81l-2.25-1.29a78.55,78.55,0,0,1,14.48-18.59l1.79,1.89A76.35,76.35,0,0,0,312.68,367.81Z" style="fill:#37474f"></path><path d="M324.55,368.47c-1.43-5.68-1.43-12.17,0-19.83l2.55.47c-1.34,7.28-1.34,13.41,0,18.73Z" style="fill:#37474f"></path><path d="M335.6,352.67c-4,0-8.62-1-10.66-2.83l1.74-1.93c2.05,1.86,10,2.85,12.86,1.61l1,2.38A13.26,13.26,0,0,1,335.6,352.67Z" style="fill:#37474f"></path><path d="M327,349.42l-2.35-1.1a64.44,64.44,0,0,1,14.42-19.1l1.67,2A61.61,61.61,0,0,0,327,349.42Z" style="fill:#37474f"></path><path d="M324.53,349.11c-1.41-7.49-1.4-14,0-19.83l2.53.61c-1.33,5.49-1.32,11.62,0,18.74Z" style="fill:#37474f"></path><path d="M318.34,372.59a10.71,10.71,0,0,1-5.42-1.4c-3.84-2.23-6-6.73-6-12.68,0-11.51,7.81-25,17.77-30.78,5.16-3,10.11-3.39,14-1.17s6,6.72,6,12.67c0,11.51-7.8,25-17.77,30.79A17.31,17.31,0,0,1,318.34,372.59Zm14.92-43.15a13.16,13.16,0,0,0-6.38,2c-8.62,5-15.63,17.12-15.63,27.07,0,4.36,1.36,7.54,3.82,9s5.89,1,9.66-1.17h0c8.62-5,15.63-17.12,15.63-27.07,0-4.35-1.35-7.53-3.82-9A6.5,6.5,0,0,0,333.26,329.44Z" style="fill:#455a64"></path><path d="M332.88,347.34,328,344.51h0a2.27,2.27,0,0,0-2.24.23,7,7,0,0,0-3.18,5.51,2.24,2.24,0,0,0,.93,2.06h0l4.8,2.76.28-.47a3.51,3.51,0,0,0,.92-.35,7.07,7.07,0,0,0,3.18-5.52,3.39,3.39,0,0,0-.1-.81Z" style="fill:#263238"></path><path d="M330.56,347.52a7.06,7.06,0,0,0-3.18,5.51c0,2,1.43,2.86,3.18,1.84a7,7,0,0,0,3.19-5.51C333.75,347.33,332.32,346.51,330.56,347.52Z" style="fill:#455a64"></path><g id="freepik--Keyboard--inject-37"><path d="M358.67,218.58a1.11,1.11,0,0,0-.26-1l-16.15-18.61a2,2,0,0,0-2.41-.27L266,241.38a1.49,1.49,0,0,0-.73.91c-.09.35-.65,2.61-.73,3a1.11,1.11,0,0,0,.26,1l16.14,18.6a2,2,0,0,0,2.41.28l73.83-42.63a1.5,1.5,0,0,0,.74-.91C358,221.27,358.58,218.94,358.67,218.58Z" style="fill:#37474f"></path><path d="M281.69,261.85l-16.16-18.53a1.25,1.25,0,0,1,.47-1.94l73.85-42.71a2,2,0,0,1,2.41.27l16.15,18.61a1.26,1.26,0,0,1-.48,1.95L284.1,262.12A2,2,0,0,1,281.69,261.85Z" style="fill:#455a64"></path><path d="M282.71,262.38l-.74,3a1.76,1.76,0,0,1-1-.52L264.8,246.28a1.11,1.11,0,0,1-.26-1l.73-3a1.11,1.11,0,0,0,.26,1l16.15,18.54A1.72,1.72,0,0,0,282.71,262.38Z" style="fill:#263238"></path><path d="M283.61,259.43h0l-1.6-1.85,3.25-1.87,1.66,1.86-3.25,1.87Zm-2.51-2.88a.05.05,0,0,1,0,0l-1.6-1.84,2.56-1.47,1.66,1.86-2.55,1.47Zm7,.26h0L286.51,255l2.55-1.47,1.66,1.86-2.55,1.47Zm-9.55-3.15h0l-1.6-1.84,4.12-2.38,1.67,1.86-4.12,2.38Zm6.35.67a.06.06,0,0,1-.05,0l-1.6-1.84,2-1.17,1.67,1.86-2,1.17Zm7,.27-.05,0-1.59-1.84,2.55-1.48,1.66,1.86L292,254.59Zm-3.73-2.18,0,0-1.6-1.84,2-1.17,1.66,1.86-2,1.17Zm-12.16-1.64s0,0,0,0l-1.6-1.84,3.25-1.87,1.66,1.86-3.24,1.87Zm19.73,1.6,0,0-1.6-1.84,18.43-10.65,1.67,1.87-18.44,10.64ZM284,250.54l0,0-1.6-1.84,2-1.17,1.66,1.86-2,1.17Zm7.57,0s0,0,0,0l-1.6-1.84,2-1.17,1.66,1.86-2,1.17Zm-18-2.6-.05,0L272,246l2-1.17,1.67,1.86-2,1.17Zm7,.26s0,0,0,0L279,246.3l2-1.17,1.66,1.86-2,1.17Zm6.69.47,0,0-1.6-1.84,2-1.17,1.66,1.86-2,1.17Zm7.57,0,0,0-1.6-1.84,2-1.17,1.67,1.86-2,1.17Zm-18-2.61h-.05l-1.6-1.85,2-1.17,1.66,1.86-2,1.17Zm7,.27,0,0-1.59-1.84,2-1.17,1.67,1.86-2,1.17Zm6.69.46s0,0,0,0l-1.6-1.84,2-1.17,1.67,1.86-2,1.17Zm-20.09-2.31,0,0-1.6-1.84,2.55-1.47,1.66,1.86-2.54,1.47Zm27.65,2.27,0,0-1.6-1.84,2-1.17,1.66,1.86-2,1.17Zm-18-2.6,0,0-1.6-1.84,2-1.17,1.66,1.86-2,1.17Zm7,.26s0,0,0,0l-1.6-1.84,2-1.17,1.66,1.86-2,1.17Zm6.69.47,0,0-1.6-1.84,2-1.17,1.66,1.86-2,1.17Zm7.57,0,0,0-1.6-1.84,2-1.17,1.66,1.86-2,1.17Zm-25.69-3.41,0,0-1.6-1.84,2-1.17,1.66,1.86-2,1.17Zm7.71.8h-.05l-1.59-1.85,2-1.17L285.6,241l-2,1.16Zm7,.27,0,0-1.6-1.84,2-1.17,1.66,1.86-2,1.17Zm6.69.46,0,0-1.6-1.84,2-1.17,1.66,1.86-2,1.17Zm7.57,0h-.05L303.2,241l2-1.17,1.67,1.87-2,1.16Zm-25.69-3.41h0l-1.6-1.85,2-1.17,1.66,1.86-2,1.17Zm7.7.81a.05.05,0,0,1,0,0l-1.6-1.84,2-1.17,1.66,1.86-2,1.17Zm7.05.26a.06.06,0,0,1-.05,0l-1.59-1.84,2-1.17,1.67,1.86-2,1.17Zm6.69.47,0,0-1.6-1.84,2-1.17,1.67,1.86-2,1.17Zm7.56,0,0,0-1.6-1.84,2-1.17,1.66,1.86-2,1.17Zm-25.68-3.41a.06.06,0,0,1-.05,0l-1.59-1.84,2-1.17,1.67,1.86-2,1.17Zm7.7.8h0l-1.6-1.85,2-1.17,1.66,1.87-2,1.16ZM315.55,241s0,0,0,0l-1.6-1.84,2.55-1.47,1.67,1.86L315.58,241Zm-18.33-2.4,0,0-1.6-1.84,2-1.17,1.66,1.86-2,1.17Zm6.69.46h0l-1.6-1.85,2-1.17,1.66,1.86-2,1.17Zm7.57,0h0l-1.6-1.85,2-1.17,1.66,1.87-2,1.16Zm-25.69-3.41h0l-1.6-1.85,2-1.17,1.66,1.86-2,1.17Zm7.71.81-.05,0-1.59-1.84,2-1.17,1.67,1.86-2,1.17Zm7,.26s0,0,0,0l-1.6-1.84,2-1.17,1.66,1.86-2,1.17Zm18.85,2.1s0,0,0,0l-1.6-1.84,2.55-1.47L322,237.3l-2.55,1.47Zm-12.16-1.63,0,0-1.6-1.84,2-1.17,1.66,1.86-2,1.17Zm7.57,0s0,0-.05,0l-1.6-1.84,2-1.17,1.66,1.86-2,1.17Zm-18-2.61h0l-1.6-1.85,2-1.17,1.66,1.87-2,1.16Zm7.05.27-.05,0-1.6-1.84,2-1.17,1.66,1.86-2,1.17Zm6.69.46h0l-1.6-1.85,2-1.17,1.67,1.86-2,1.17Zm-20-2.37h0l-1.6-1.84,2-1.17,1.66,1.86-2,1.17Zm32.68,3.7h0l-1.6-1.84,2.55-1.48,1.67,1.86-2.55,1.48Zm-5.12-1.37h0l-1.6-1.85,2-1.17,1.66,1.87-2,1.16Zm-18-2.6,0,0-1.6-1.84,2-1.17,1.66,1.86-2,1.17Zm7,.26h0l-1.6-1.85,2-1.17,1.66,1.86-2,1.17Zm6.69.47,0,0-1.6-1.84,2-1.17,1.66,1.86-2,1.17Zm-20-2.37s0,0,0,0l-1.6-1.84,2-1.17,1.66,1.86-2,1.17Zm33.2,3.4,0,0-1.6-1.84,3.25-1.88,1.66,1.86-3.24,1.88Zm-5.64-1.07,0,0-1.6-1.84,6.39-3.69,1.66,1.86-6.39,3.69Zm-18-2.61h-.05l-1.59-1.85,2-1.16,1.67,1.86-2,1.16Zm7,.27,0,0-1.6-1.84,2-1.17,1.66,1.86-2,1.17Zm6.69.46h0l-1.6-1.85,2-1.17,1.66,1.86-2,1.17Zm-20-2.36,0,0-1.6-1.84,2-1.17,1.67,1.86-2,1.17Zm9.57-.28,0,0-1.6-1.84,2-1.17,1.66,1.86-2,1.17Zm25.55,2.56h0l-1.6-1.85,2-1.16,1.66,1.86-2,1.16Zm-18.5-2.3h-.05l-1.6-1.85,2-1.17,1.66,1.86-2,1.17Zm6.69.47,0,0-1.6-1.84,1.85-1.07a.61.61,0,0,0,.27-.37.51.51,0,0,0-.08-.44l-2.1-2.42,2.37-1.37,4.17,4.74-4.82,2.79Zm-20-2.37,0,0-1.6-1.84,2-1.17,1.66,1.86-2,1.17Zm9.58-.28h0l-1.6-1.84,2-1.17,1.66,1.86-2,1.16Zm25.55,2.57a.06.06,0,0,1-.05,0L334,227.54l2-1.17,1.67,1.86-2,1.17Zm-18.51-2.3,0,0-1.6-1.84,2-1.17,1.66,1.86-2,1.17Zm-11.86-2.74h0l-1.6-1.85,2-1.17,1.66,1.86-2,1.17Zm8.14.56a.06.06,0,0,1,0,0l-1.59-1.84,2-1.17,1.67,1.86-2,1.17Zm25.54,2.56h0l-1.6-1.84,2-1.17,1.66,1.86-2,1.16Zm-5.82-1,0,0-1.6-1.84,2-1.17,1.66,1.86-2,1.17Zm-24.54-4.07,0,0-1.6-1.84,2-1.17,1.66,1.86-2,1.17Zm8.13.55h0l-1.6-1.84,3.6-2.08,1.67,1.86-3.6,2.07ZM343,225.17l0,0-1.6-1.84,5.34-3.09,1.67,1.86L343,225.17Zm-18.16-2.51h0l-1.6-1.85,2-1.17,1.66,1.86-2,1.17Zm-12.9-2.13h0l-1.59-1.85,2-1.17,1.67,1.86-2,1.17Zm28.56,1.75h0l-1.59-1.85,2-1.17,1.67,1.86-2,1.17Zm-12.34-1.53s0,0,0,0l-1.6-1.84,2-1.17,1.66,1.86-2,1.17Zm-5.82-1s0,0,0,0l-1.6-1.84,2-1.17,1.66,1.86-2,1.17Zm-7.09-1.16,0,0-1.6-1.84,2-1.17,1.66,1.86-2,1.17Zm34.38,2.72,0,0-1.6-1.84,2-1.17,1.66,1.86-2,1.17Zm-5.82-1s0,0,0,0l-1.6-1.84,2-1.17,1.66,1.86-2,1.17Zm-12.33-1.54h-.05L329.8,217l2-1.17,1.67,1.87-2,1.16Zm6.51.57a.05.05,0,0,1,0,0l-1.6-1.84,2-1.17,1.66,1.86-2,1.17Zm-12.33-1.54h-.05L324,216l2-1.17,1.67,1.86-2,1.16Zm-6.36-1.58s0,0,0,0l-1.6-1.84,2-1.17,1.66,1.86-2,1.17Zm33.65,3.14a.06.06,0,0,1-.05,0l-4.1-4.72,2-1.17,4.17,4.74-2,1.17Zm-5.82-1h0l-1.6-1.85,2-1.17,1.66,1.86-2,1.17Zm-5.82-1h0l-1.6-1.84,2-1.17,1.66,1.86-2,1.16ZM328.93,216l0,0-1.6-1.84,2-1.17,1.66,1.86L329,216Zm6.52.57,0,0-1.6-1.84,2-1.17,1.66,1.86-2,1.17Zm-12.87-2.16h0l-1.6-1.84,2-1.17,1.66,1.86-2,1.16Zm22,1.21a.06.06,0,0,1,0,0L343,213.71l2-1.17,1.67,1.86-2,1.17Zm-5.82-1s0,0,0,0l-1.6-1.84,2-1.17,1.67,1.86-2,1.17Zm-5.82-1h0l-1.6-1.85,2-1.17,1.67,1.86-2,1.17Zm-7.05-1.18a.06.06,0,0,1,0,0l-1.59-1.84,2-1.17,1.67,1.86-2,1.17Zm22,1.2h0l-4.1-4.73,2-1.17,4.17,4.74-2,1.17Zm-5.82-1,0,0-1.6-1.84,2-1.17,1.66,1.86-2,1.17Zm-5.82-1,0,0-1.61-1.84,2-1.17,1.66,1.86-2,1.17Zm-7-2.33,0,0-.7-.78,2-1.17.75.81-2,1.16Zm10.31.41h0l-1.6-1.85,2-1.17,1.66,1.86-2,1.17Zm-7-2.32,0,0-.69-.79,2-1.17.76.81-2,1.17Zm10.31.41,0,0-1.6-1.84,2-1.17,1.67,1.86-2,1.17Zm-7-2.33s0,0,0,0l-.7-.78,2-1.17.75.81-2,1.16Zm3.32-1.91,0,0-.7-.79,2-1.17.75.81-2,1.17Z" style="fill:#407BFF"></path><path d="M283.61,259.43h0l-1.6-1.85,3.25-1.87,1.66,1.86-3.25,1.87Zm-2.51-2.88a.05.05,0,0,1,0,0l-1.6-1.84,2.56-1.47,1.66,1.86-2.55,1.47Zm7,.26h0L286.51,255l2.55-1.47,1.66,1.86-2.55,1.47Zm-9.55-3.15h0l-1.6-1.84,4.12-2.38,1.67,1.86-4.12,2.38Zm6.35.67a.06.06,0,0,1-.05,0l-1.6-1.84,2-1.17,1.67,1.86-2,1.17Zm7,.27-.05,0-1.59-1.84,2.55-1.48,1.66,1.86L292,254.59Zm-3.73-2.18,0,0-1.6-1.84,2-1.17,1.66,1.86-2,1.17Zm-12.16-1.64s0,0,0,0l-1.6-1.84,3.25-1.87,1.66,1.86-3.24,1.87Zm19.73,1.6,0,0-1.6-1.84,18.43-10.65,1.67,1.87-18.44,10.64ZM284,250.54l0,0-1.6-1.84,2-1.17,1.66,1.86-2,1.17Zm7.57,0s0,0,0,0l-1.6-1.84,2-1.17,1.66,1.86-2,1.17Zm-18-2.6-.05,0L272,246l2-1.17,1.67,1.86-2,1.17Zm7,.26s0,0,0,0L279,246.3l2-1.17,1.66,1.86-2,1.17Zm6.69.47,0,0-1.6-1.84,2-1.17,1.66,1.86-2,1.17Zm7.57,0,0,0-1.6-1.84,2-1.17,1.67,1.86-2,1.17Zm-18-2.61h-.05l-1.6-1.85,2-1.17,1.66,1.86-2,1.17Zm7,.27,0,0-1.59-1.84,2-1.17,1.67,1.86-2,1.17Zm6.69.46s0,0,0,0l-1.6-1.84,2-1.17,1.67,1.86-2,1.17Zm-20.09-2.31,0,0-1.6-1.84,2.55-1.47,1.66,1.86-2.54,1.47Zm27.65,2.27,0,0-1.6-1.84,2-1.17,1.66,1.86-2,1.17Zm-18-2.6,0,0-1.6-1.84,2-1.17,1.66,1.86-2,1.17Zm7,.26s0,0,0,0l-1.6-1.84,2-1.17,1.66,1.86-2,1.17Zm6.69.47,0,0-1.6-1.84,2-1.17,1.66,1.86-2,1.17Zm7.57,0,0,0-1.6-1.84,2-1.17,1.66,1.86-2,1.17Zm-25.69-3.41,0,0-1.6-1.84,2-1.17,1.66,1.86-2,1.17Zm7.71.8h-.05l-1.59-1.85,2-1.17L285.6,241l-2,1.16Zm7,.27,0,0-1.6-1.84,2-1.17,1.66,1.86-2,1.17Zm6.69.46,0,0-1.6-1.84,2-1.17,1.66,1.86-2,1.17Zm7.57,0h-.05L303.2,241l2-1.17,1.67,1.87-2,1.16Zm-25.69-3.41h0l-1.6-1.85,2-1.17,1.66,1.86-2,1.17Zm7.7.81a.05.05,0,0,1,0,0l-1.6-1.84,2-1.17,1.66,1.86-2,1.17Zm7.05.26a.06.06,0,0,1-.05,0l-1.59-1.84,2-1.17,1.67,1.86-2,1.17Zm6.69.47,0,0-1.6-1.84,2-1.17,1.67,1.86-2,1.17Zm7.56,0,0,0-1.6-1.84,2-1.17,1.66,1.86-2,1.17Zm-25.68-3.41a.06.06,0,0,1-.05,0l-1.59-1.84,2-1.17,1.67,1.86-2,1.17Zm7.7.8h0l-1.6-1.85,2-1.17,1.66,1.87-2,1.16ZM315.55,241s0,0,0,0l-1.6-1.84,2.55-1.47,1.67,1.86L315.58,241Zm-18.33-2.4,0,0-1.6-1.84,2-1.17,1.66,1.86-2,1.17Zm6.69.46h0l-1.6-1.85,2-1.17,1.66,1.86-2,1.17Zm7.57,0h0l-1.6-1.85,2-1.17,1.66,1.87-2,1.16Zm-25.69-3.41h0l-1.6-1.85,2-1.17,1.66,1.86-2,1.17Zm7.71.81-.05,0-1.59-1.84,2-1.17,1.67,1.86-2,1.17Zm7,.26s0,0,0,0l-1.6-1.84,2-1.17,1.66,1.86-2,1.17Zm18.85,2.1s0,0,0,0l-1.6-1.84,2.55-1.47L322,237.3l-2.55,1.47Zm-12.16-1.63,0,0-1.6-1.84,2-1.17,1.66,1.86-2,1.17Zm7.57,0s0,0-.05,0l-1.6-1.84,2-1.17,1.66,1.86-2,1.17Zm-18-2.61h0l-1.6-1.85,2-1.17,1.66,1.87-2,1.16Zm7.05.27-.05,0-1.6-1.84,2-1.17,1.66,1.86-2,1.17Zm6.69.46h0l-1.6-1.85,2-1.17,1.67,1.86-2,1.17Zm-20-2.37h0l-1.6-1.84,2-1.17,1.66,1.86-2,1.17Zm32.68,3.7h0l-1.6-1.84,2.55-1.48,1.67,1.86-2.55,1.48Zm-5.12-1.37h0l-1.6-1.85,2-1.17,1.66,1.87-2,1.16Zm-18-2.6,0,0-1.6-1.84,2-1.17,1.66,1.86-2,1.17Zm7,.26h0l-1.6-1.85,2-1.17,1.66,1.86-2,1.17Zm6.69.47,0,0-1.6-1.84,2-1.17,1.66,1.86-2,1.17Zm-20-2.37s0,0,0,0l-1.6-1.84,2-1.17,1.66,1.86-2,1.17Zm33.2,3.4,0,0-1.6-1.84,3.25-1.88,1.66,1.86-3.24,1.88Zm-5.64-1.07,0,0-1.6-1.84,6.39-3.69,1.66,1.86-6.39,3.69Zm-18-2.61h-.05l-1.59-1.85,2-1.16,1.67,1.86-2,1.16Zm7,.27,0,0-1.6-1.84,2-1.17,1.66,1.86-2,1.17Zm6.69.46h0l-1.6-1.85,2-1.17,1.66,1.86-2,1.17Zm-20-2.36,0,0-1.6-1.84,2-1.17,1.67,1.86-2,1.17Zm9.57-.28,0,0-1.6-1.84,2-1.17,1.66,1.86-2,1.17Zm25.55,2.56h0l-1.6-1.85,2-1.16,1.66,1.86-2,1.16Zm-18.5-2.3h-.05l-1.6-1.85,2-1.17,1.66,1.86-2,1.17Zm6.69.47,0,0-1.6-1.84,1.85-1.07a.61.61,0,0,0,.27-.37.51.51,0,0,0-.08-.44l-2.1-2.42,2.37-1.37,4.17,4.74-4.82,2.79Zm-20-2.37,0,0-1.6-1.84,2-1.17,1.66,1.86-2,1.17Zm9.58-.28h0l-1.6-1.84,2-1.17,1.66,1.86-2,1.16Zm25.55,2.57a.06.06,0,0,1-.05,0L334,227.54l2-1.17,1.67,1.86-2,1.17Zm-18.51-2.3,0,0-1.6-1.84,2-1.17,1.66,1.86-2,1.17Zm-11.86-2.74h0l-1.6-1.85,2-1.17,1.66,1.86-2,1.17Zm8.14.56a.06.06,0,0,1,0,0l-1.59-1.84,2-1.17,1.67,1.86-2,1.17Zm25.54,2.56h0l-1.6-1.84,2-1.17,1.66,1.86-2,1.16Zm-5.82-1,0,0-1.6-1.84,2-1.17,1.66,1.86-2,1.17Zm-24.54-4.07,0,0-1.6-1.84,2-1.17,1.66,1.86-2,1.17Zm8.13.55h0l-1.6-1.84,3.6-2.08,1.67,1.86-3.6,2.07ZM343,225.17l0,0-1.6-1.84,5.34-3.09,1.67,1.86L343,225.17Zm-18.16-2.51h0l-1.6-1.85,2-1.17,1.66,1.86-2,1.17Zm-12.9-2.13h0l-1.59-1.85,2-1.17,1.67,1.86-2,1.17Zm28.56,1.75h0l-1.59-1.85,2-1.17,1.67,1.86-2,1.17Zm-12.34-1.53s0,0,0,0l-1.6-1.84,2-1.17,1.66,1.86-2,1.17Zm-5.82-1s0,0,0,0l-1.6-1.84,2-1.17,1.66,1.86-2,1.17Zm-7.09-1.16,0,0-1.6-1.84,2-1.17,1.66,1.86-2,1.17Zm34.38,2.72,0,0-1.6-1.84,2-1.17,1.66,1.86-2,1.17Zm-5.82-1s0,0,0,0l-1.6-1.84,2-1.17,1.66,1.86-2,1.17Zm-12.33-1.54h-.05L329.8,217l2-1.17,1.67,1.87-2,1.16Zm6.51.57a.05.05,0,0,1,0,0l-1.6-1.84,2-1.17,1.66,1.86-2,1.17Zm-12.33-1.54h-.05L324,216l2-1.17,1.67,1.86-2,1.16Zm-6.36-1.58s0,0,0,0l-1.6-1.84,2-1.17,1.66,1.86-2,1.17Zm33.65,3.14a.06.06,0,0,1-.05,0l-4.1-4.72,2-1.17,4.17,4.74-2,1.17Zm-5.82-1h0l-1.6-1.85,2-1.17,1.66,1.86-2,1.17Zm-5.82-1h0l-1.6-1.84,2-1.17,1.66,1.86-2,1.16ZM328.93,216l0,0-1.6-1.84,2-1.17,1.66,1.86L329,216Zm6.52.57,0,0-1.6-1.84,2-1.17,1.66,1.86-2,1.17Zm-12.87-2.16h0l-1.6-1.84,2-1.17,1.66,1.86-2,1.16Zm22,1.21a.06.06,0,0,1,0,0L343,213.71l2-1.17,1.67,1.86-2,1.17Zm-5.82-1s0,0,0,0l-1.6-1.84,2-1.17,1.67,1.86-2,1.17Zm-5.82-1h0l-1.6-1.85,2-1.17,1.67,1.86-2,1.17Zm-7.05-1.18a.06.06,0,0,1,0,0l-1.59-1.84,2-1.17,1.67,1.86-2,1.17Zm22,1.2h0l-4.1-4.73,2-1.17,4.17,4.74-2,1.17Zm-5.82-1,0,0-1.6-1.84,2-1.17,1.66,1.86-2,1.17Zm-5.82-1,0,0-1.61-1.84,2-1.17,1.66,1.86-2,1.17Zm-7-2.33,0,0-.7-.78,2-1.17.75.81-2,1.16Zm10.31.41h0l-1.6-1.85,2-1.17,1.66,1.86-2,1.17Zm-7-2.32,0,0-.69-.79,2-1.17.76.81-2,1.17Zm10.31.41,0,0-1.6-1.84,2-1.17,1.67,1.86-2,1.17Zm-7-2.33s0,0,0,0l-.7-.78,2-1.17.75.81-2,1.16Zm3.32-1.91,0,0-.7-.79,2-1.17.75.81-2,1.17Z" style="fill:#fff;opacity:0.25"></path></g><g id="freepik--Pipe--inject-37"><g id="freepik--pipe--inject-37"><path d="M245.24,374.29a16.07,16.07,0,0,1-8-2.41c-9.25-5.33-16.49-17.87-16.49-28.55,0-5.55,2-9.75,5.59-11.83s8.24-1.7,13,1.08c9.25,5.33,16.49,17.87,16.49,28.55,0,5.55-2,9.75-5.59,11.83A10,10,0,0,1,245.24,374.29Zm-13.76-39.82a5.87,5.87,0,0,0-2.95.74c-2.22,1.29-3.44,4.17-3.44,8.12,0,9.13,6.43,20.27,14.33,24.84,3.43,2,6.54,2.36,8.75,1.08s3.44-4.17,3.44-8.12c0-9.13-6.43-20.27-14.33-24.84A11.94,11.94,0,0,0,231.48,334.47Z" style="fill:#263238"></path><path d="M251.59,355.6a33.49,33.49,0,0,0-9.53-16.52c-6.2-5.87-12.11-7.17-16-4.94l-37.3,21.53a2.37,2.37,0,0,1-3.56-2.05V294.8H141.67v80.48a33.47,33.47,0,0,0,50.15,29l56.06-32.36h0C251.75,369.66,253.57,363.89,251.59,355.6Z" style="fill:#455a64"></path><path d="M149.82,374.89V294.8h-8.15v80.48a33.47,33.47,0,0,0,50.15,29l56.06-32.36h0c3.26-1.88,5.06-6.28,4.36-12.58l-64.7,37.35A25.14,25.14,0,0,1,149.82,374.89Z" style="fill:#37474f"></path><g style="opacity:0.1"><path d="M226.09,334.14l-37.3,21.53a2.37,2.37,0,0,1-3.56-2.05v4a8.8,8.8,0,0,0,13.2,7.62l44.22-25.53c-.2-.2-.39-.41-.59-.6C235.86,333.21,230,331.91,226.09,334.14Z" style="fill:#fff"></path></g><path d="M141.66,342.13c0,3.21,2.14,6.42,6.38,8.86,8.51,4.92,22.31,4.92,30.82,0,4.26-2.46,6.39-5.68,6.39-8.9v1.46c0,3.22-2.13,6.44-6.39,8.9-8.51,4.91-22.31,4.91-30.82,0-4.24-2.45-6.37-5.66-6.38-8.87Z" style="fill:#263238"></path><path d="M210.84,393.28c2.77-1.62,4.49-5.07,4.49-10,0-9.82-6.9-21.78-15.41-26.69-4.26-2.46-8.11-2.69-10.9-1.08l1.27-.73c2.79-1.61,6.64-1.38,10.89,1.08,8.51,4.91,15.41,16.86,15.41,26.69,0,4.9-1.71,8.35-4.48,10Z" style="fill:#263238"></path><path d="M147.36,316.19a1.31,1.31,0,1,0,1.31,1.31A1.31,1.31,0,0,0,147.36,316.19Zm9.32,3.48A1.31,1.31,0,1,0,158,321,1.31,1.31,0,0,0,156.68,319.67Zm22.87-3.48a1.31,1.31,0,1,0,1.3,1.31A1.3,1.3,0,0,0,179.55,316.19Zm-9.32,3.48a1.31,1.31,0,1,0,1.3,1.31A1.31,1.31,0,0,0,170.23,319.67Z" style="fill:#263238"></path><path d="M147.36,358a1.31,1.31,0,1,0,1.31,1.31A1.31,1.31,0,0,0,147.36,358Zm9.32,3.49a1.31,1.31,0,1,0,1.31,1.31A1.31,1.31,0,0,0,156.68,361.53ZM179.55,358a1.31,1.31,0,1,0,1.3,1.31A1.31,1.31,0,0,0,179.55,358Zm-9.32,3.49a1.31,1.31,0,1,0,1.3,1.31A1.31,1.31,0,0,0,170.23,361.53Z" style="fill:#263238"></path><path d="M223,380.18a1.3,1.3,0,1,0,.48-1.78A1.31,1.31,0,0,0,223,380.18Zm-1.64-9.81a1.31,1.31,0,1,0,.48-1.79A1.31,1.31,0,0,0,221.34,370.37Zm-14.45-18.06a1.31,1.31,0,1,0,.47-1.79A1.31,1.31,0,0,0,206.89,352.31Zm7.68,6.33a1.31,1.31,0,1,0,.47-1.79A1.31,1.31,0,0,0,214.57,358.64Z" style="fill:#263238"></path></g><g id="freepik--Funnel--inject-37"><path d="M197.58,288H129.33l14.09,19.36h0a14.81,14.81,0,0,0,4.6,3.93c8.51,4.91,22.31,4.91,30.82,0a15,15,0,0,0,4.61-3.93h0Z" style="fill:#263238"></path><ellipse cx="163.45" cy="279.7" rx="36.99" ry="21.35" style="fill:#455a64"></ellipse><path d="M183.63,297.6a14.65,14.65,0,0,0-4.77-4.14c-8.51-4.92-22.31-4.92-30.82,0a14.75,14.75,0,0,0-4.77,4.14A60.74,60.74,0,0,0,183.63,297.6Z" style="fill:#263238"></path><path d="M163.45,302.63c-9.76,0-19.52-2.14-27-6.43h0c-7.5-4.34-11.63-10.19-11.63-16.5s4.13-12.16,11.63-16.49c14.87-8.58,39-8.58,53.92,0,7.5,4.33,11.64,10.19,11.64,16.49s-4.14,12.16-11.64,16.5S173.22,302.63,163.45,302.63Zm-25.35-9.22c14,8.07,36.72,8.07,50.7,0,6.47-3.73,10-8.6,10-13.71s-3.56-10-10-13.7c-14-8.07-36.72-8.07-50.7,0-6.46,3.73-10,8.6-10,13.7s3.56,10,10,13.71Z" style="fill:#37474f"></path><path d="M153.11,289.28c-1.21-4.06-2.94-8-4.35-12s-2.53-8.1-4.08-12c-.17-.43-.59-.24-.53.18a68.36,68.36,0,0,0,3.25,12,78.75,78.75,0,0,0,5,12.3C152.75,290.34,153.26,289.8,153.11,289.28Z" style="fill:#37474f"></path><path d="M141.67,273.2a1.31,1.31,0,1,0,1.31,1.31A1.31,1.31,0,0,0,141.67,273.2Zm3.79,10.56a1.31,1.31,0,1,0,1.3,1.3A1.3,1.3,0,0,0,145.46,283.76Z" style="fill:#263238"></path></g></g><g id="freepik--Screen--inject-37"><path d="M199.58,244.74c-1.92-1.11-1.82-3-1.82-5.35V133.29a8.19,8.19,0,0,1,3.71-6.42L337,48.65a6.39,6.39,0,0,1,6.77.19c1.81,1.44,2.24,2.66,2.24,5V160a8.19,8.19,0,0,1-3.71,6.43L206.77,244.61A8,8,0,0,1,199.58,244.74Z" style="fill:#37474f"></path><path d="M346,53.86c0-2.36-1.66-3.32-3.71-2.14L206.77,129.94a7.41,7.41,0,0,0-2.62,2.78l-5.3-3.08h0a7.57,7.57,0,0,1,2.62-2.78L337,48.65c2.05-1.19,5-1.21,6.76.19S346,51.5,346,53.86Z" style="fill:#455a64"></path><path d="M206.33,244.83a8,8,0,0,1-6.75-.09c-1.92-1.11-1.81-3-1.81-5.35V133.29a7.53,7.53,0,0,1,1.08-3.65l5.3,3.06h0a7.61,7.61,0,0,0-1.09,3.65V242.47C203.06,244.66,204.49,245.65,206.33,244.83Z" style="fill:#263238"></path><path d="M208.77,134.22,339.14,59c1.23-.71,2.23-.14,2.23,1.28v98.68a4.93,4.93,0,0,1-2.23,3.85L208.77,238c-1.23.71-2.23.14-2.23-1.28V138.08A4.93,4.93,0,0,1,208.77,134.22Z"></path><path d="M208.77,134.22a4.93,4.93,0,0,0-2.23,3.86V235l128.89-74.39a4.92,4.92,0,0,0,2.22-3.86V59.83Z" style="fill:#263238"></path></g></g></g><g id="freepik--Charts--inject-37"><g id="freepik--chart--inject-37"><path d="M275.89,106.55a1.48,1.48,0,0,0-.65-1.4h0l-1.68-1h0a1.49,1.49,0,0,0-1.54.14L214.5,137.58a4.73,4.73,0,0,0-2.15,3.72v80.9a1.5,1.5,0,0,0,.64,1.39h0l1.72,1h0a1.53,1.53,0,0,0,1.52-.15l57.52-33.26a4.77,4.77,0,0,0,2.15-3.72Z" style="fill:#407BFF;opacity:0.4"></path><path d="M275.89,106.55v80.9a4.72,4.72,0,0,1-2.14,3.72l-57.52,33.26c-1,.61-1.93.24-2.11-.81a1.85,1.85,0,0,0,.38-.18L272,190.18a4.73,4.73,0,0,0,2.14-3.71V105.56a2.81,2.81,0,0,0,0-.43C275.13,104.75,275.89,105.33,275.89,106.55Z" style="fill:#407BFF;opacity:0.4"></path><path d="M273.75,105.31l-52.38,30.74-2.93,1.69-1.47.84c-.23.14-.51.29-.7.42a3.35,3.35,0,0,0-.58.49,4.45,4.45,0,0,0-1.23,2.77v3.38l0,13.51-.08,17.28c0,18-.16,28.74-.27,46.76-.11-18-.24-28.74-.28-46.76l-.08-17.28v-16.9a5.16,5.16,0,0,1,1.43-3.28,4.09,4.09,0,0,1,.7-.61c.28-.18.5-.29.75-.44l1.46-.85,2.93-1.69,11.69-6.78Z" style="fill:#fff"></path><g id="freepik--chart--inject-37"><path d="M242.16,133l0,31.23-19,30.26c-6.69-8.58-4.74-30,5.72-46.95C233.15,140.67,236.89,136.3,242.16,133Z" style="fill:#407BFF"></path><path d="M242.16,133l0,31.23-19,30.26c-6.69-8.58-4.74-30,5.72-46.95C233.15,140.67,236.89,136.3,242.16,133Z" style="fill:#fff;opacity:0.2"></path><path d="M267.93,160.49c-3.76,19-16.85,36.61-29.74,39.76-5.19,1.29-9.39.24-12.82-3.14l19.09-30.88Z" style="fill:#407BFF"></path><path d="M267.93,160.49c-3.76,19-16.85,36.61-29.74,39.76-5.19,1.29-9.39.24-12.82-3.14l19.09-30.88Z" style="fill:#fff;opacity:0.30000000000000004"></path><path d="M268.42,157.21,246,162.72l12.61-33.2C266.6,132.55,270.39,143.18,268.42,157.21Z" style="fill:#407BFF"></path><path d="M256.19,129.29l-11.39,30V131.37C249,129.12,252.56,128.48,256.19,129.29Z" style="fill:#407BFF"></path><path d="M256.19,129.29l-11.39,30V131.37C249,129.12,252.56,128.48,256.19,129.29Z" style="fill:#fff;opacity:0.5"></path></g></g><g id="freepik--chart--inject-37"><path d="M335,117.72a1.47,1.47,0,0,0-.65-1.39h0l-1.69-1h0a1.49,1.49,0,0,0-1.54.14l-48.79,28.2a4.73,4.73,0,0,0-2.15,3.72v35.26a1.53,1.53,0,0,0,.64,1.4h0l1.72,1h0a1.5,1.5,0,0,0,1.52-.15l48.8-28.2A4.75,4.75,0,0,0,335,153Z" style="fill:#407BFF;opacity:0.4"></path><path d="M335,117.73V153a4.75,4.75,0,0,1-2.14,3.72l-48.8,28.2c-1,.61-1.93.24-2.11-.81a1.85,1.85,0,0,0,.38-.18l48.8-28.2A4.73,4.73,0,0,0,333.3,152V116.74a1.91,1.91,0,0,0,0-.43C334.27,115.93,335,116.51,335,117.73Z" style="fill:#407BFF;opacity:0.4"></path><path d="M332.89,116.49l-43.66,25.68-2.93,1.69-1.47.84c-.23.14-.51.29-.7.42a3.35,3.35,0,0,0-.58.49,4.45,4.45,0,0,0-1.23,2.77s-.26,17.27-.37,35.29c-.12-18-.38-35.3-.38-35.3a5.16,5.16,0,0,1,1.43-3.28,4,4,0,0,1,.7-.6c.28-.19.5-.3.75-.45l1.46-.85,2.93-1.69,11.69-6.78Z" style="fill:#fff"></path><g id="freepik--chart--inject-37"><polygon points="314.24 133.07 309.43 135.85 309.43 161.38 314.24 158.6 314.24 133.07" style="fill:#407BFF"></polygon><path d="M286,179.05c-.16.08-.28,0-.28-.27V148.34a.71.71,0,0,1,.28-.58c.15-.09.27,0,.27.26v30.44A.74.74,0,0,1,286,179.05Z" style="fill:#fafafa"></path><path d="M330.48,153.31l-45.82,26.47c-.16.09-.28,0-.28-.27a.71.71,0,0,1,.28-.58l45.82-26.47c.15-.09.27,0,.27.27A.73.73,0,0,1,330.48,153.31Z" style="fill:#fafafa"></path><polygon points="293.74 146.26 288.93 149.04 288.93 173.22 293.74 170.44 293.74 146.26" style="fill:#407BFF"></polygon><polygon points="293.74 146.26 288.93 149.04 288.93 173.22 293.74 170.44 293.74 146.26" style="fill:#fff;opacity:0.2"></polygon><polygon points="327.91 134.07 323.1 136.85 323.1 153.49 327.91 150.71 327.91 134.07" style="fill:#407BFF"></polygon><polygon points="300.57 159.09 295.76 161.87 295.76 169.27 300.57 166.5 300.57 159.09" style="fill:#407BFF"></polygon><polygon points="307.41 151.25 302.6 154.03 302.6 165.33 307.41 162.55 307.41 151.25" style="fill:#407BFF"></polygon><polygon points="307.41 151.25 302.6 154.03 302.6 165.33 307.41 162.55 307.41 151.25" style="fill:#fff;opacity:0.30000000000000004"></polygon><polygon points="321.07 143.66 316.26 146.43 316.26 157.44 321.07 154.66 321.07 143.66" style="fill:#407BFF"></polygon><polygon points="321.07 143.66 316.26 146.43 316.26 157.44 321.07 154.66 321.07 143.66" style="fill:#fff;opacity:0.4"></polygon></g></g><g id="freepik--chart--inject-37"><path d="M335,72.44a1.48,1.48,0,0,0-.65-1.4h0l-1.69-1h0a1.49,1.49,0,0,0-1.54.14l-48.79,28.2a4.73,4.73,0,0,0-2.15,3.72v35.26a1.53,1.53,0,0,0,.64,1.4h0l1.72,1h0a1.48,1.48,0,0,0,1.52-.15l48.8-28.2A4.75,4.75,0,0,0,335,107.7Z" style="fill:#407BFF;opacity:0.4"></path><path d="M335,72.44v35.27a4.75,4.75,0,0,1-2.14,3.71l-48.8,28.2c-1,.61-1.93.24-2.11-.81a2.48,2.48,0,0,0,.38-.17l48.8-28.21a4.73,4.73,0,0,0,2.14-3.71V71.45a1.91,1.91,0,0,0,0-.43C334.27,70.64,335,71.22,335,72.44Z" style="fill:#407BFF;opacity:0.4"></path><path d="M332.89,71.2,289.23,96.88l-2.93,1.69-1.47.84c-.23.14-.51.29-.7.42a3.35,3.35,0,0,0-.58.49,4.45,4.45,0,0,0-1.23,2.77s-.26,17.27-.37,35.29c-.12-18-.38-35.29-.38-35.29A5.16,5.16,0,0,1,283,99.8a4,4,0,0,1,.7-.6c.28-.19.5-.3.75-.45l1.46-.85,2.93-1.69,11.69-6.78Z" style="fill:#fff"></path><path d="M286.63,124.8a.28.28,0,0,1-.24-.14.29.29,0,0,1,.1-.39l1.47-.84a.28.28,0,0,1,.39.1.29.29,0,0,1-.1.39l-1.48.84A.23.23,0,0,1,286.63,124.8Zm2.95-1.7a.29.29,0,0,1-.25-.14.27.27,0,0,1,.11-.38l1.47-.85a.27.27,0,0,1,.38.1.29.29,0,0,1-.1.39l-1.47.85Zm2.94-1.7a.3.3,0,0,1-.25-.14.28.28,0,0,1,.11-.38l1.47-.85a.29.29,0,0,1,.39.1.29.29,0,0,1-.11.39l-1.47.85A.32.32,0,0,1,292.52,121.4Zm2.94-1.69a.29.29,0,0,1-.14-.53l1.47-.85a.29.29,0,0,1,.39.1.28.28,0,0,1-.11.39l-1.47.85A.33.33,0,0,1,295.46,119.71Zm2.94-1.7a.28.28,0,0,1-.24-.14.29.29,0,0,1,.1-.39l1.48-.85a.28.28,0,0,1,.38.1.29.29,0,0,1-.1.39l-1.47.85A.42.42,0,0,1,298.4,118Zm3-1.7a.3.3,0,0,1-.25-.14.28.28,0,0,1,.11-.39l1.47-.85a.29.29,0,0,1,.39.1.29.29,0,0,1-.11.39l-1.47.85A.25.25,0,0,1,301.35,116.31Zm2.94-1.7a.27.27,0,0,1-.24-.14.28.28,0,0,1,.1-.39l1.47-.85a.29.29,0,0,1,.39.1.28.28,0,0,1-.11.39l-1.47.85A.23.23,0,0,1,304.29,114.61Zm2.94-1.7a.28.28,0,0,1-.24-.14.29.29,0,0,1,.1-.39l1.47-.85a.29.29,0,0,1,.39.11.28.28,0,0,1-.1.38l-1.47.85A.28.28,0,0,1,307.23,112.91Zm2.95-1.7a.29.29,0,0,1-.25-.14.29.29,0,0,1,.1-.39l1.48-.85a.28.28,0,0,1,.38.11.27.27,0,0,1-.1.38l-1.47.85A.27.27,0,0,1,310.18,111.21Zm2.94-1.7a.3.3,0,0,1-.25-.14A.29.29,0,0,1,313,109l1.47-.85a.28.28,0,0,1,.39.11.28.28,0,0,1-.11.38l-1.47.85A.23.23,0,0,1,313.12,109.51Zm2.94-1.7a.27.27,0,0,1-.24-.14.28.28,0,0,1,.1-.39l1.47-.85a.29.29,0,0,1,.29.5l-1.48.84A.23.23,0,0,1,316.06,107.81Zm2.95-1.7a.29.29,0,0,1-.25-.14.28.28,0,0,1,.1-.38l1.48-.85a.27.27,0,0,1,.38.1.29.29,0,0,1-.1.39l-1.47.85Zm2.94-1.7a.3.3,0,0,1-.25-.14.28.28,0,0,1,.11-.38l1.47-.85a.28.28,0,0,1,.38.1.28.28,0,0,1-.1.39l-1.47.85A.32.32,0,0,1,322,104.41Zm2.94-1.69a.28.28,0,0,1-.24-.15.27.27,0,0,1,.1-.38l1.47-.85a.28.28,0,0,1,.39.1.28.28,0,0,1-.11.39l-1.47.85A.33.33,0,0,1,324.89,102.72Zm2.94-1.7a.27.27,0,0,1-.24-.15.28.28,0,0,1,.1-.38l.54-.31a.29.29,0,0,1,.39.1.28.28,0,0,1-.11.39L328,101A.42.42,0,0,1,327.83,101Z" style="fill:#fafafa"></path><path d="M286.63,118.36a.28.28,0,0,1-.24-.14.29.29,0,0,1,.1-.39L288,117a.29.29,0,0,1,.39.11.28.28,0,0,1-.1.38l-1.48.85A.23.23,0,0,1,286.63,118.36Zm2.95-1.7a.28.28,0,0,1-.14-.53l1.47-.85a.28.28,0,0,1,.38.11.28.28,0,0,1-.1.38l-1.47.85A.27.27,0,0,1,289.58,116.66Zm2.94-1.7a.3.3,0,0,1-.25-.14.29.29,0,0,1,.11-.39l1.47-.85a.29.29,0,0,1,.39.11.28.28,0,0,1-.11.38l-1.47.85A.23.23,0,0,1,292.52,115Zm2.94-1.7a.27.27,0,0,1-.24-.14.29.29,0,0,1,.1-.39l1.47-.84a.27.27,0,0,1,.39.1.29.29,0,0,1-.11.39l-1.47.84A.23.23,0,0,1,295.46,113.26Zm2.94-1.7a.28.28,0,0,1-.24-.14.28.28,0,0,1,.1-.38l1.48-.85a.27.27,0,0,1,.38.1.29.29,0,0,1-.1.39l-1.47.85A.4.4,0,0,1,298.4,111.56Zm3-1.7a.3.3,0,0,1-.25-.14.27.27,0,0,1,.11-.38l1.47-.85a.29.29,0,0,1,.39.1.29.29,0,0,1-.11.39l-1.47.85A.35.35,0,0,1,301.35,109.86Zm2.94-1.69a.28.28,0,0,1-.24-.15.27.27,0,0,1,.1-.38l1.47-.85a.29.29,0,0,1,.39.1.28.28,0,0,1-.11.39l-1.47.85A.33.33,0,0,1,304.29,108.17Zm2.94-1.7a.27.27,0,0,1-.24-.15.28.28,0,0,1,.1-.38l1.47-.85a.28.28,0,0,1,.29.49l-1.47.85A.42.42,0,0,1,307.23,106.47Zm2.95-1.7a.29.29,0,0,1-.25-.14.29.29,0,0,1,.1-.39l1.48-.85a.28.28,0,0,1,.38.1.28.28,0,0,1-.1.39l-1.47.85A.43.43,0,0,1,310.18,104.77Zm2.94-1.7a.3.3,0,0,1-.25-.14.29.29,0,0,1,.11-.39l1.47-.85a.29.29,0,0,1,.39.1.29.29,0,0,1-.11.39l-1.47.85A.23.23,0,0,1,313.12,103.07Zm2.94-1.7a.27.27,0,0,1-.24-.14.28.28,0,0,1,.1-.39l1.47-.85a.3.3,0,0,1,.39.1.29.29,0,0,1-.1.39l-1.48.85A.23.23,0,0,1,316.06,101.37Zm2.95-1.7a.29.29,0,0,1-.25-.14.29.29,0,0,1,.1-.39l1.48-.85a.28.28,0,0,1,.38.11.28.28,0,0,1-.1.38l-1.47.85A.27.27,0,0,1,319,99.67ZM322,98a.3.3,0,0,1-.25-.14.29.29,0,0,1,.11-.39l1.47-.85a.28.28,0,0,1,.38.11.27.27,0,0,1-.1.38l-1.47.85A.23.23,0,0,1,322,98Zm2.94-1.7a.27.27,0,0,1-.24-.14.28.28,0,0,1,.1-.39l1.47-.85a.29.29,0,0,1,.39.11.27.27,0,0,1-.11.38l-1.47.85A.23.23,0,0,1,324.89,96.27Zm2.94-1.7a.28.28,0,0,1-.24-.14.29.29,0,0,1,.1-.39l.54-.31a.29.29,0,0,1,.39.11.27.27,0,0,1-.11.38l-.53.31A.28.28,0,0,1,327.83,94.57Z" style="fill:#fafafa"></path><path d="M286.63,111.92a.27.27,0,0,1-.24-.15.28.28,0,0,1,.1-.38l1.47-.85a.28.28,0,1,1,.29.49l-1.48.85A.33.33,0,0,1,286.63,111.92Zm2.95-1.7a.28.28,0,0,1-.14-.53l1.47-.85a.28.28,0,0,1,.38.1.29.29,0,0,1-.1.39l-1.47.85A.43.43,0,0,1,289.58,110.22Zm2.94-1.7a.3.3,0,0,1-.25-.14.29.29,0,0,1,.11-.39l1.47-.85a.29.29,0,0,1,.39.1.29.29,0,0,1-.11.39l-1.47.85A.23.23,0,0,1,292.52,108.52Zm2.94-1.7a.27.27,0,0,1-.24-.14.29.29,0,0,1,.1-.39l1.47-.85a.29.29,0,0,1,.39.1.28.28,0,0,1-.11.39l-1.47.85A.23.23,0,0,1,295.46,106.82Zm2.94-1.7a.28.28,0,0,1-.24-.14.29.29,0,0,1,.1-.39l1.48-.85a.27.27,0,0,1,.38.11.28.28,0,0,1-.1.38l-1.47.85A.28.28,0,0,1,298.4,105.12Zm3-1.7a.3.3,0,0,1-.25-.14.28.28,0,0,1,.11-.39l1.47-.85a.28.28,0,0,1,.38.11.27.27,0,0,1-.1.38l-1.47.85A.25.25,0,0,1,301.35,103.42Zm2.94-1.7a.27.27,0,0,1-.24-.14.28.28,0,0,1,.1-.39l1.47-.85a.29.29,0,0,1,.39.11.27.27,0,0,1-.11.38l-1.47.85A.23.23,0,0,1,304.29,101.72Zm2.94-1.7a.28.28,0,0,1-.24-.14.29.29,0,0,1,.1-.39l1.47-.85a.29.29,0,0,1,.29.5l-1.47.84A.28.28,0,0,1,307.23,100Zm2.95-1.7a.29.29,0,0,1-.25-.14.28.28,0,0,1,.1-.38l1.48-.85a.27.27,0,0,1,.38.1.28.28,0,0,1-.1.39l-1.47.85Zm2.94-1.7a.3.3,0,0,1-.25-.14.28.28,0,0,1,.11-.38l1.47-.85a.29.29,0,0,1,.39.1.29.29,0,0,1-.11.39l-1.47.85A.32.32,0,0,1,313.12,96.62Zm2.94-1.69a.28.28,0,0,1-.24-.15.27.27,0,0,1,.1-.38l1.47-.85a.28.28,0,0,1,.29.49l-1.48.85A.33.33,0,0,1,316.06,94.93Zm2.95-1.7a.27.27,0,0,1-.25-.15.28.28,0,0,1,.1-.38l1.47-.85a.28.28,0,1,1,.29.49l-1.47.85A.43.43,0,0,1,319,93.23Zm2.94-1.7a.3.3,0,0,1-.25-.14.28.28,0,0,1,.11-.39l1.47-.85a.28.28,0,0,1,.38.1.28.28,0,0,1-.1.39l-1.47.85A.37.37,0,0,1,322,91.53Zm2.94-1.7a.27.27,0,0,1-.24-.14.28.28,0,0,1,.1-.39l1.47-.85a.29.29,0,0,1,.39.1.28.28,0,0,1-.11.39l-1.47.85A.23.23,0,0,1,324.89,89.83Zm2.94-1.7a.28.28,0,0,1-.24-.14.29.29,0,0,1,.1-.39l.54-.31a.29.29,0,0,1,.39.1.28.28,0,0,1-.11.39l-.53.31A.28.28,0,0,1,327.83,88.13Z" style="fill:#fafafa"></path><path d="M286.63,105.47a.28.28,0,0,1-.24-.14.29.29,0,0,1,.1-.39l1.47-.85a.29.29,0,0,1,.29.5l-1.48.84A.23.23,0,0,1,286.63,105.47Zm2.95-1.7a.29.29,0,0,1-.25-.14.27.27,0,0,1,.11-.38l1.47-.85a.27.27,0,0,1,.38.1.29.29,0,0,1-.1.39l-1.47.85Zm2.94-1.7a.3.3,0,0,1-.25-.14.28.28,0,0,1,.11-.38l1.47-.85a.29.29,0,0,1,.39.1.29.29,0,0,1-.11.39l-1.47.85A.32.32,0,0,1,292.52,102.07Zm2.94-1.69a.29.29,0,0,1-.14-.53l1.47-.85a.29.29,0,0,1,.39.1.28.28,0,0,1-.11.39l-1.47.85A.33.33,0,0,1,295.46,100.38Zm2.94-1.7a.27.27,0,0,1-.24-.15.28.28,0,0,1,.1-.38l1.48-.85a.28.28,0,0,1,.38.1.29.29,0,0,1-.1.39l-1.47.85A.42.42,0,0,1,298.4,98.68Zm3-1.7a.3.3,0,0,1-.25-.14.28.28,0,0,1,.11-.39l1.47-.85a.27.27,0,0,1,.38.1.28.28,0,0,1-.1.39l-1.47.85A.25.25,0,0,1,301.35,97Zm2.94-1.7a.27.27,0,0,1-.24-.14.28.28,0,0,1,.1-.39l1.47-.85a.29.29,0,0,1,.39.1.28.28,0,0,1-.11.39l-1.47.85A.23.23,0,0,1,304.29,95.28Zm2.94-1.7a.28.28,0,0,1-.24-.14.29.29,0,0,1,.1-.39l1.47-.85a.28.28,0,0,1,.29.49l-1.47.85A.28.28,0,0,1,307.23,93.58Zm2.95-1.7a.29.29,0,0,1-.25-.14.29.29,0,0,1,.1-.39l1.48-.85a.28.28,0,0,1,.38.11.27.27,0,0,1-.1.38l-1.47.85A.27.27,0,0,1,310.18,91.88Zm2.94-1.7a.3.3,0,0,1-.25-.14.29.29,0,0,1,.11-.39l1.47-.85a.29.29,0,0,1,.39.11.28.28,0,0,1-.11.38l-1.47.85A.23.23,0,0,1,313.12,90.18Zm2.94-1.7a.27.27,0,0,1-.24-.14.28.28,0,0,1,.1-.39l1.47-.85a.29.29,0,0,1,.39.11.28.28,0,0,1-.1.38l-1.48.85A.23.23,0,0,1,316.06,88.48Zm2.95-1.7a.29.29,0,0,1-.25-.14.29.29,0,0,1,.1-.39l1.47-.85a.29.29,0,0,1,.39.11.28.28,0,0,1-.1.38l-1.47.85A.27.27,0,0,1,319,86.78Zm2.94-1.7a.3.3,0,0,1-.25-.14.29.29,0,0,1,.11-.39l1.47-.84a.27.27,0,0,1,.38.1.28.28,0,0,1-.1.39l-1.47.85A.35.35,0,0,1,322,85.08Zm2.94-1.7a.28.28,0,0,1-.14-.52l1.47-.85a.29.29,0,0,1,.39.1.28.28,0,0,1-.11.39l-1.47.85A.32.32,0,0,1,324.89,83.38Zm2.94-1.69a.27.27,0,0,1-.24-.15.28.28,0,0,1,.1-.38l.54-.31a.28.28,0,0,1,.39.1.28.28,0,0,1-.11.39l-.53.31A.42.42,0,0,1,327.83,81.69Z" style="fill:#fafafa"></path><path d="M286.63,121.38a.25.25,0,0,1-.14,0,.29.29,0,0,1-.11-.4l4.86-8.8c1.81-3.29,4.6-5.48,7-5.48h.32c2.29,0,5.05-2.34,6.73-5.72l2.07-4.17c2.23-4.47,6.06-7,8.72-5.74l1.78.84c1.68.79,4.08-.26,6.11-2.67a15.94,15.94,0,0,0,1.58-2.51c.9-1.61,1.75-3.13,2.83-3.25a.3.3,0,0,1,.33.26.29.29,0,0,1-.27.32c-.78.09-1.59,1.55-2.37,3a17.34,17.34,0,0,1-1.65,2.6c-2.21,2.62-4.88,3.73-6.81,2.82l-1.79-.84c-2.32-1.09-5.88,1.36-7.93,5.47l-2.07,4.17c-1.78,3.58-4.76,6.05-7.27,6.05h-.32c-2.15,0-4.72,2.07-6.44,5.17l-4.86,8.81A.3.3,0,0,1,286.63,121.38Z" style="fill:#407BFF"></path><g style="opacity:0.4"><path d="M286.63,121.38a.25.25,0,0,1-.14,0,.29.29,0,0,1-.11-.4l4.86-8.8c1.81-3.29,4.6-5.48,7-5.48h.32c2.29,0,5.05-2.34,6.73-5.72l2.07-4.17c2.23-4.47,6.06-7,8.72-5.74l1.78.84c1.68.79,4.08-.26,6.11-2.67a17.2,17.2,0,0,0,1.56-2.44c.92-1.62,1.79-3.15,2.84-3.32a.29.29,0,0,1,.09.58c-.77.12-1.65,1.67-2.42,3a17.85,17.85,0,0,1-1.62,2.53c-2.21,2.62-4.88,3.73-6.81,2.82l-1.79-.84c-2.32-1.09-5.88,1.36-7.93,5.47l-2.07,4.17c-1.78,3.58-4.76,6.05-7.27,6.05h-.32c-2.15,0-4.72,2.07-6.44,5.17l-4.86,8.81A.3.3,0,0,1,286.63,121.38Z" style="fill:#fff"></path></g><path d="M293.64,109.06a1.93,1.93,0,0,1,.84-1.53c.47-.27.85,0,.85.56a1.92,1.92,0,0,1-.85,1.52C294,109.88,293.64,109.63,293.64,109.06Z" style="fill:#407BFF"></path><path d="M310.58,92.64a1.92,1.92,0,0,1,.85-1.52c.46-.27.84,0,.84.55a1.92,1.92,0,0,1-.84,1.52C311,93.46,310.58,93.22,310.58,92.64Z" style="fill:#407BFF"></path><path d="M327.53,84.23a1.94,1.94,0,0,1,.84-1.53c.47-.27.85,0,.85.55a1.92,1.92,0,0,1-.85,1.53C327.91,85.05,327.53,84.8,327.53,84.23Z" style="fill:#407BFF"></path><path d="M293,127.69l-4.5,2.6c-.41.23-.74.07-.74-.37v-.61a1.59,1.59,0,0,1,.74-1.22l4.5-2.59c.41-.24.74-.07.74.36v.61A1.58,1.58,0,0,1,293,127.69Z" style="fill:#fafafa"></path><path d="M310,117.87l-4.5,2.6c-.41.24-.74.07-.74-.36v-.61a1.58,1.58,0,0,1,.74-1.22l4.5-2.6c.41-.23.74-.07.74.37v.6A1.56,1.56,0,0,1,310,117.87Z" style="fill:#fafafa"></path><path d="M327,108.06l-4.5,2.59c-.41.24-.74.08-.74-.36v-.61a1.59,1.59,0,0,1,.74-1.22l4.5-2.59c.41-.24.74-.08.74.36v.61A1.58,1.58,0,0,1,327,108.06Z" style="fill:#fafafa"></path></g></g><g id="freepik--speech-bubble--inject-37"><g id="freepik--speech-bubble--inject-37"><g id="freepik--speech-bubble--inject-37"><path d="M401.71,225.49c-.69,0-1.1-.58-1.1-1.55V183.76a5.22,5.22,0,0,1,.74-2.49,5.14,5.14,0,0,1,1.77-1.89l53.67-31a2.14,2.14,0,0,1,1-.32,1,1,0,0,1,1,.87,3.22,3.22,0,0,1,.08.67V189.8c0,1.69,0,2.91-2.26,4.19l-22.33,12.94-4.17,12a.16.16,0,0,1-.17.12h0a.16.16,0,0,1-.16-.09l-4.09-7.08-23,13.26a2.65,2.65,0,0,1-.41.21A1.94,1.94,0,0,1,401.71,225.49Z" style="fill:#fafafa"></path><path d="M457.82,148.47c.13,0,.47,0,.62.57a2.38,2.38,0,0,1,.08.58V189.8c0,1.67,0,2.68-2.08,3.85l-22.19,12.86-.26.15-.1.28-4,11.44L426.27,212l-.4-.68-.68.39-22.66,13.08a1.91,1.91,0,0,1-.32.16l-.09,0a1.31,1.31,0,0,1-.41.07c-.61,0-.71-.72-.71-1.15V183.76a4.78,4.78,0,0,1,.71-2.3,4.58,4.58,0,0,1,1.61-1.73l53.67-31a1.82,1.82,0,0,1,.83-.27m0-.79a2.5,2.5,0,0,0-1.22.37l-53.68,31a5.43,5.43,0,0,0-1.91,2,5.61,5.61,0,0,0-.8,2.69v40.18c0,1.24.61,1.95,1.5,1.95a2,2,0,0,0,.66-.12l.09,0a2.65,2.65,0,0,0,.48-.23l22.64-13.07,3.9,6.74a.55.55,0,0,0,.5.29.57.57,0,0,0,.55-.39l4.11-11.88,22.2-12.86c2.45-1.39,2.47-2.79,2.47-4.54V149.62a3.58,3.58,0,0,0-.09-.77,1.42,1.42,0,0,0-1.4-1.17Z" style="fill:#407BFF"></path></g><path d="M413.51,187.57a5,5,0,0,1,2.28-.78,2.15,2.15,0,0,1,1.62.58,4,4,0,0,1,1,1.8,12.56,12.56,0,0,1,.42,2.88c0,1.32,0,2.66,0,4a19.79,19.79,0,0,1-.42,3.35,13.81,13.81,0,0,1-1,2.95,10.62,10.62,0,0,1-1.59,2.43,8.94,8.94,0,0,1-2.23,1.82l-4.47,2.58a.26.26,0,0,1-.34,0,.61.61,0,0,1-.14-.44V191.11a1.46,1.46,0,0,1,.14-.6.9.9,0,0,1,.34-.41Zm2.91,5.86a6.42,6.42,0,0,0-.22-1.5,2.14,2.14,0,0,0-.55-1,1.28,1.28,0,0,0-.91-.35,2.72,2.72,0,0,0-1.32.45l-2.37,1.37V204.7l2.46-1.42a4.58,4.58,0,0,0,1.26-1.05,6,6,0,0,0,.89-1.37,7,7,0,0,0,.54-1.62,10.45,10.45,0,0,0,.22-1.77C416.47,196.1,416.47,194.75,416.42,193.43Z" style="fill:#407BFF"></path><path d="M426.71,180c.19-.11.33-.11.43,0a1.49,1.49,0,0,1,.25.55l4.34,14.75a.9.9,0,0,1,0,.18,1.46,1.46,0,0,1-.14.6.93.93,0,0,1-.34.42l-1.28.73c-.23.14-.4.16-.49.06a.79.79,0,0,1-.2-.34l-.76-2.59-5.61,3.24-.76,3.47a2.85,2.85,0,0,1-.19.56,1.24,1.24,0,0,1-.5.52l-1.28.74a.26.26,0,0,1-.34,0,.58.58,0,0,1-.14-.43,1.23,1.23,0,0,1,0-.2l4.35-19.78a4.37,4.37,0,0,1,.24-.84,1.09,1.09,0,0,1,.43-.47Zm1,11.43-1.95-6.66-2,8.91Z" style="fill:#407BFF"></path><path d="M440.37,172.06a.27.27,0,0,1,.34,0,.58.58,0,0,1,.14.43v1.94a1.54,1.54,0,0,1-.14.61,1,1,0,0,1-.34.41l-3.19,1.84v15a1.46,1.46,0,0,1-.14.6.9.9,0,0,1-.34.41l-1.44.83a.24.24,0,0,1-.33,0,.57.57,0,0,1-.15-.44v-15l-3.19,1.85a.27.27,0,0,1-.34,0,.58.58,0,0,1-.14-.43v-1.94a1.46,1.46,0,0,1,.14-.6,1,1,0,0,1,.34-.42Z" style="fill:#407BFF"></path><path d="M447.2,168.12c.19-.11.33-.11.43,0a1.35,1.35,0,0,1,.25.55l4.34,14.75a.9.9,0,0,1,0,.18,1.46,1.46,0,0,1-.14.6.93.93,0,0,1-.34.42l-1.28.73c-.23.14-.4.16-.49.06a.79.79,0,0,1-.2-.34l-.76-2.59-5.61,3.24-.76,3.47a2.85,2.85,0,0,1-.19.56,1.24,1.24,0,0,1-.5.52l-1.28.74a.26.26,0,0,1-.34,0,.58.58,0,0,1-.14-.43,1.23,1.23,0,0,1,0-.2l4.35-19.78a4.37,4.37,0,0,1,.24-.84,1.09,1.09,0,0,1,.43-.47Zm1,11.43-1.95-6.66-2,8.91Z" style="fill:#407BFF"></path></g></g></svg>