<svg xmlns="http://www.w3.org/2000/svg" viewBox="0 0 750 500"><g id="freepik--Plant--inject-40"><path d="M140.2,248.71c-3.8-3.72-8.71-8.22-14.52-6.62-5.46,1.51-7.55,7.48-8.53,12.44-1.26,6.41-2.24,12.88-3.26,19.32s-2,13-2.93,19.56q-.79,5.52-1.56,11c-.26,1.84-.52,3.69-.77,5.53s-.56,3.61-.65,5.43c0,.58.88.67,1,.11.71-3.07,1-6.26,1.45-9.38s.91-6.27,1.36-9.41c.91-6.23,1.86-12.45,2.79-18.67s1.91-12.45,2.91-18.67c.84-5.27,1.24-11.83,5.91-15.3a9,9,0,0,1,8.75-.82c3.07,1.17,5.53,3.37,7.94,5.55A.08.08,0,0,0,140.2,248.71Z" style="fill:#263238"></path><path d="M135,244.9s-7.77-2.79-11.6,2.88.75,20.07,36.1,28.21a99.72,99.72,0,0,0-8.5-32C143.42,227.5,129.91,233.76,135,244.9Z" style="fill:#407BFF"></path><path d="M157.47,273.63a27.4,27.4,0,0,0-1.78-2.87c-.59-.91-1.19-1.82-1.79-2.72-.45-.68-.92-1.35-1.38-2,0-.16,0-.33.06-.5l.12-.92c.09-.66.19-1.32.28-2s.21-1.32.34-2a10.44,10.44,0,0,1,.46-2.08c0-.1-.14-.15-.15,0a8.12,8.12,0,0,1-.32,1.17l-.24.89c-.17.67-.33,1.35-.48,2s-.26,1.25-.37,1.88c-.05.3-.09.6-.13.9-.63-.89-1.28-1.78-1.94-2.66-1.88-2.47-3.86-4.85-5.92-7.17a.15.15,0,0,0,0-.07c.19-3.71.1-7.39.92-11,0-.1-.12-.16-.15-.06A38.16,38.16,0,0,0,143.71,255c-.73-.82-1.48-1.64-2.23-2.45q-2.58-2.77-5.27-5.46c-.07-.07-.19,0-.12.11,3,3.21,5.81,6.55,8.57,10a60.74,60.74,0,0,0-6.47.24c-2.39.18-4.77.48-7.15.81a.08.08,0,1,0,0,.16,65.52,65.52,0,0,1,7.14-.64c2.31-.1,4.6,0,6.91,0,1.49,1.85,3,3.7,4.41,5.58h-1.95c-1.08,0-2.15.1-3.22.19a47.85,47.85,0,0,0-6.53,1,.08.08,0,0,0,0,.15c2.17-.24,4.35-.45,6.53-.52,1.05,0,2.09,0,3.13,0h1.63a1.87,1.87,0,0,0,.89-.08c1,1.24,1.9,2.47,2.84,3.71.75,1,1.49,2,2.22,3s1.42,2.15,2.24,3.11A.08.08,0,0,0,157.47,273.63Z" style="fill:#263238"></path><path d="M138.38,252.93a23.88,23.88,0,0,0-3.78-.18c-1.26,0-2.53,0-3.79.08a.08.08,0,1,0,0,.16c1.28-.09,2.56-.12,3.84-.1s2.48.14,3.71.11A0,0,0,0,0,138.38,252.93Z" style="fill:#263238"></path><path d="M149.48,255.78c.14-1.2.29-2.42.55-3.61a.08.08,0,1,0-.16,0c-.18,1.19-.41,2.37-.58,3.56-.09.59-.17,1.19-.25,1.79a8.6,8.6,0,0,0-.14,1.68.11.11,0,0,0,.21,0,10.53,10.53,0,0,0,.18-1.68C149.34,256.93,149.41,256.36,149.48,255.78Z" style="fill:#263238"></path><path d="M147.15,242.41c-.31,1.17-.62,2.36-.83,3.56-.11.6-.21,1.21-.29,1.82a7.71,7.71,0,0,0-.12,1.79.05.05,0,0,0,.1,0,9.82,9.82,0,0,0,.27-1.71c.08-.58.17-1.17.27-1.75.22-1.24.44-2.46.75-3.67A.08.08,0,0,0,147.15,242.41Z" style="fill:#263238"></path><path d="M101.12,314.11c-.2-2.23-.42-4.45-.65-6.68-.46-4.4-1-8.79-1.59-13.18s-1.15-8.76-1.86-13.12a32,32,0,0,0-1.35-6,5.63,5.63,0,0,0-3.3-3.72c-4.16-1.44-7,2.87-8.64,5.93,0,.09.08.15.14.07,1-1.44,3.78-5.5,6.94-5.31,2.12.13,3.82,1.63,4.84,6.92,2.54,13.19,4.83,40,5.09,41.71.15.93.8.89.81-.1C101.56,318.48,101.31,316.29,101.12,314.11Z" style="fill:#263238"></path><path d="M84.85,275.73s3.64-12.83-4.4-6.41C67.07,280,66.6,303.24,66.6,303.24s23.78-13.81,26.73-22.92C97.74,266.75,84.85,275.73,84.85,275.73Z" style="fill:#407BFF"></path><path d="M89.35,282c-1.86.37-3.76.62-5.64.89l-2.68.38c-.6.08-1.21.14-1.82.21,1.77-2.44,3.56-4.87,5.26-7.36.06-.09-.08-.19-.16-.11a54.3,54.3,0,0,0-4,4.58c-.35-1-.71-2-1.06-3s-.84-2.29-1.13-3.47a.08.08,0,0,0-.15,0c.32,1.18.55,2.38.87,3.56s.65,2.26,1,3.37c-.87,1.13-1.71,2.29-2.52,3.46-.41-1.16-.92-2.28-1.27-3.46a.08.08,0,0,0-.16.05c.43,1.3.66,2.65,1.06,4-.55.8-1.09,1.6-1.61,2.4-1,1.49-1.87,3-2.75,4.52a.35.35,0,0,0-.21.36c-1.5,2.6-2.93,5.24-4.34,7.9a.08.08,0,1,0,.14.07c1.41-2.62,3-5.18,4.61-7.7h0a4.32,4.32,0,0,1,.78-.15l.82-.18c.61-.13,1.22-.29,1.83-.44,1.21-.3,2.4-.58,3.63-.8.1,0,0-.17,0-.15-1.44.27-2.88.44-4.34.61-.69.08-1.37.16-2,.27l-.1,0q1.28-2,2.6-3.87c.86-1.25,1.75-2.49,2.64-3.72.83-.12,1.64-.33,2.46-.49l2.76-.54c1.84-.36,3.68-.77,5.53-1.08C89.5,282.17,89.45,282,89.35,282Z" style="fill:#263238"></path><path d="M75.06,283.3c-.11-.34-.21-.68-.32-1a19.92,19.92,0,0,1-.55-2.15c0-.1-.17-.06-.15,0,.16.73.33,1.45.49,2.17a14.54,14.54,0,0,0,.62,2.14.15.15,0,0,0,.28-.09C75.32,284,75.18,283.67,75.06,283.3Z" style="fill:#263238"></path><path d="M91.78,279.06c-1.08.17-2.17.24-3.27.34s-2.17.25-3.26.41c-.06,0-.06.1,0,.1,1.09-.08,2.18-.16,3.27-.31s2.17-.3,3.27-.38C91.89,279.22,91.88,279.05,91.78,279.06Z" style="fill:#263238"></path><path d="M118.62,297.85c-.43-9.45-1-18.88-2-28.3-.47-4.69-1-9.37-1.66-14a98,98,0,0,0-2.71-13.58,26,26,0,0,0-4.52-9.58,10.24,10.24,0,0,0-9.14-4c-4.13.51-7.47,3.11-10.35,5.95-3.23,3.17-6.19,6.64-9.18,10-.76.86-1.51,1.72-2.26,2.59-.06.08.05.19.12.11,2.93-3.36,6-6.63,9.15-9.75,2.94-2.89,6-6,10-7.23a10.28,10.28,0,0,1,5.84-.14,9.25,9.25,0,0,1,4,2.52c2.3,2.39,3.58,5.62,4.5,8.74,2.54,8.69,3.45,17.8,4.39,26.77,1,9.12,1.61,18.26,2.07,27.41s.82,18.42,1.71,27.59c.11,1.13.25,2.26.4,3.39.09.76,1.27.76,1.21,0C119.48,316.84,119,307.35,118.62,297.85Z" style="fill:#263238"></path><path d="M87.74,235.33s5.4-10-1-13.19S59,242.76,52.81,277.6c0,0,34.47-15.26,46.18-30.45S97.42,228.6,87.74,235.33Z" style="fill:#407BFF"></path><path d="M92.81,243.45c-3.87,0-7.74-.29-11.61-.26.72-.84,1.45-1.67,2.18-2.5a34.93,34.93,0,0,0,3-3.52c0-.08-.06-.19-.14-.13A27.11,27.11,0,0,0,83.34,240c-1,1-1.94,2.07-2.9,3.11-1.48,1.6-2.93,3.23-4.38,4.86,0-.16,0-.32,0-.47,0-.68,0-1.36,0-2,0-1.31,0-2.62,0-3.94,0-2.66,0-5.34.2-8,0-.1-.15-.1-.16,0-.18,2.67-.46,5.33-.59,8-.06,1.31-.09,2.62-.11,3.94,0,.68,0,1.36,0,2,0,.36,0,.76,0,1.14-.22.25-.46.5-.68.76-3.09,3.53-6,7.18-8.9,10.9,0-.2,0-.41,0-.61,0-.41-.09-.82-.13-1.23-.1-.89-.22-1.78-.36-2.66s-.25-1.66-.39-2.49-.39-1.88-.46-2.82a.08.08,0,1,0-.15,0,26.92,26.92,0,0,1,.32,2.83l.24,2.56c.07.86.15,1.71.24,2.56l.12,1.23c0,.21.05.41.07.62a1.12,1.12,0,0,0,.17.48c-.49.64-1,1.28-1.47,1.93-2,2.58-3.88,5.2-5.8,7.81-.06.08.06.2.12.11,1.82-2.37,3.69-4.69,5.58-7,1.42.06,2.87,0,4.29-.07s3,0,4.48,0c.1,0,.1-.17,0-.16l-4.49.05c-1.36,0-2.75-.06-4.11,0,1.66-2,3.35-4,5-6,.61-.74,1.23-1.47,1.85-2.2a8.33,8.33,0,0,0,1.73.06h2l3.82-.06c2.63,0,5.26-.13,7.89-.13a.08.08,0,0,0,0-.16c-2.64,0-5.27-.15-7.9-.21-1.28,0-2.55-.08-3.83-.1l-2,0c-.38,0-.78,0-1.18,0l4.35-5.14a.21.21,0,0,0,.08-.1c1.41-1.66,2.82-3.33,4.25-5,.2-.23.4-.45.59-.68,4,.13,8-.14,12-.06C92.92,243.61,92.92,243.45,92.81,243.45Z" style="fill:#263238"></path><path d="M90.83,250.3h-.94a.07.07,0,1,0,0,.14h.93A.08.08,0,0,0,90.83,250.3Z" style="fill:#263238"></path><path d="M88.74,250.31c-1.24,0-2.48,0-3.72-.07l-1.86-.06a6.67,6.67,0,0,0-1.73,0c-.06,0-.05.1,0,.11a6.74,6.74,0,0,0,1.74.12l1.86,0c1.24,0,2.48,0,3.72,0C88.85,250.47,88.85,250.32,88.74,250.31Z" style="fill:#263238"></path><path d="M77.91,262a51.4,51.4,0,0,0-7.63-.69s0,.05,0,.06c2.54.24,5.07.37,7.59.78C78,262.12,78,262,77.91,262Z" style="fill:#263238"></path><path d="M67.54,250.86c0-.22-.05-.45-.08-.67-.06-.5-.14-1-.22-1.49-.15-.95-.31-1.89-.49-2.83,0-.09-.17-.07-.16,0,.12,1,.23,2,.32,2.93l.12,1.44a4.11,4.11,0,0,0,.19,1.36.19.19,0,0,0,.34-.05A1.89,1.89,0,0,0,67.54,250.86Z" style="fill:#263238"></path><path d="M118.28,222.5c-1.24-2.3-2.81-5.33-5.89-5.14-2.54.16-3.69,2.76-4.23,4.9-1.68,6.64-1.8,13.63-2.12,20.43-.7,14.37-1.32,28.76-1.41,43.14q0,6,0,12c0,4.06,0,8.16.28,12.22a.3.3,0,0,0,.6,0c0-3.48-.1-7-.11-10.44s0-6.79.06-10.18q.17-10.32.55-20.63c.26-6.83.56-13.66.85-20.49q.21-5.12.44-10.24c.15-3.3.29-6.61.67-9.9.21-1.84.48-3.69.87-5.5a7.69,7.69,0,0,1,1.59-3.69,3.47,3.47,0,0,1,4.49-.32,9.48,9.48,0,0,1,3.19,4C118.19,222.68,118.33,222.59,118.28,222.5Z" style="fill:#263238"></path><path d="M117.44,221.4s-2.53-8.94,3.07-4.47c9.32,7.45,9.65,23.64,9.65,23.64s-16.57-9.63-18.63-16C108.46,215.14,117.44,221.4,117.44,221.4Z" style="fill:#407BFF"></path><path d="M126.67,233.93c-.15-.25-.31-.49-.47-.73a5,5,0,0,0,0-.77c0-.38,0-.77,0-1.15,0-.76,0-1.51.08-2.27,0-.1-.16-.09-.16,0q-.06,1.11-.09,2.22c0,.37,0,.74,0,1.11,0,.15,0,.31,0,.48-.65-1-1.32-2-2-3-.2-.29-.41-.56-.61-.85a15.82,15.82,0,0,1,0-2.92c0-1,0-2.07.06-3.11a.08.08,0,0,0-.16,0c0,1.08-.08,2.16-.14,3.24a19.86,19.86,0,0,0-.06,2.31c-1.6-2.17-3.3-4.27-5-6.35,0-.07-.18,0-.12.1,1.06,1.34,2.08,2.72,3.08,4.12-2-.45-3.93-.72-5.91-1-.1,0-.14.14,0,.15,2.1.32,4.16.85,6.23,1.3h0c.79,1.11,1.58,2.24,2.35,3.36.32.46.63.93.94,1.39h-.08c-.22,0-.43-.07-.65-.09-.46-.06-.92-.09-1.38-.13-1-.08-1.91-.13-2.87-.18-.1,0-.09.16,0,.16.94,0,1.88.1,2.81.2.5.05,1,.12,1.49.18l.64.07.19,0c.53.78,1.07,1.56,1.59,2.35.94,1.38,1.78,2.86,2.77,4.2a.08.08,0,0,0,.13-.08A41,41,0,0,0,126.67,233.93Z" style="fill:#263238"></path><path d="M122.55,223.83c0-.35,0-.7,0-1.05a16.11,16.11,0,0,1,.09-2.19.08.08,0,1,0-.15,0c0,.72-.08,1.44-.12,2.17,0,.36,0,.72,0,1.08v.5a1.8,1.8,0,0,0,0,.52.07.07,0,0,0,.14,0,1.54,1.54,0,0,0,0-.48Z" style="fill:#263238"></path><path d="M120.5,227.53c-.62-.1-1.25-.14-1.87-.19s-1.36-.12-2-.2a.08.08,0,1,0,0,.15c1.31.09,2.61.32,3.92.37C120.56,227.66,120.57,227.54,120.5,227.53Z" style="fill:#263238"></path><path d="M125.7,227.59c0,.06,0,.26,0,.34v.91c0,.21,0,.42,0,.63a1.44,1.44,0,0,0,0,.55,0,0,0,0,0,.06,0,.59.59,0,0,0,0-.26c0-.1,0-.2,0-.29v-.63c0-.21,0-.41,0-.62v-.29c0-.09,0-.27,0-.35S125.6,227.44,125.7,227.59Z" style="fill:#263238"></path><path d="M118.66,270.21c-3.48-2.61-6.61-6.37-11.3-6.55-3.87-.16-6.58,2.76-8.13,6A34.55,34.55,0,0,0,97.34,275q-1.05,3.67-2,7.38c-1.21,4.85-2.25,9.76-3.1,14.69-.47,2.75-.91,5.52-1.26,8.29a70.93,70.93,0,0,0-.81,8.48.44.44,0,0,0,.87.09c.47-2.32.67-4.71,1-7.05s.7-4.71,1.09-7.05c.8-4.69,1.72-9.37,2.78-14,1-4.38,2-8.83,3.39-13.1,1-3.06,2.64-6.63,6-7.73,5-1.68,9.59,2.58,13.27,5.34C118.63,270.39,118.74,270.28,118.66,270.21Z" style="fill:#263238"></path><path d="M115.06,267.71s-3.21-9.17,1.43-11c7-2.69,25.18,17.83,21.61,49.27,0,0-14.07-7.75-24.47-16.48s-13-20.11-8.47-23.06S115.06,267.71,115.06,267.71Z" style="fill:#407BFF"></path><path d="M136,299.27a24.74,24.74,0,0,0-1.69-3.17c-.6-1.07-1.2-2.15-1.82-3.21-1.21-2.07-2.41-4.14-3.65-6.19-.2-.34-.41-.66-.61-1,0-.12.05-.24.07-.36l.21-.91c.16-.69.28-1.38.4-2.06.26-1.35.49-2.71.85-4,0-.1-.13-.13-.15,0-.29,1.34-.72,2.67-1.11,4-.2.65-.41,1.3-.58,1.95l-.18.68c-1.49-2.46-3-4.9-4.66-7.26a3.29,3.29,0,0,0,.17-1c0-.46.1-.92.16-1.37.12-1,.24-2.07.39-3.1.3-2,.6-4,1.1-6,0-.1-.13-.13-.16,0-.5,2-1,4-1.42,6-.18,1-.36,2-.49,3-.06.49-.12,1-.17,1.49,0,.15,0,.3-.06.45-.5-.71-1-1.42-1.53-2.12-1.61-2.11-3.28-4.18-5-6.24-.06-.08-.2,0-.13.09a112.61,112.61,0,0,1,7.92,11.57c.46.73.91,1.48,1.37,2.22l-.46-.06c-.59-.07-1.18-.11-1.77-.16-1.19-.12-2.37-.22-3.56-.31-2.37-.19-4.75-.34-7.11-.59a.08.08,0,0,0,0,.16c2.4.27,4.78.66,7.17,1L123,283a14.06,14.06,0,0,0,2.71.28c.93,1.51,1.87,3,2.8,4.54-.21,0-.43,0-.63,0h-3.39c-1.53,0-3.06,0-4.58,0-.11,0-.09.16,0,.16,1.55,0,3.09.1,4.64.18.73,0,1.46.08,2.2.13l1.1.08a2.21,2.21,0,0,0,1,0l2.38,3.86c.73,1.19,1.47,2.38,2.22,3.55a28.23,28.23,0,0,0,2.39,3.58C135.91,299.42,136,299.37,136,299.27Z" style="fill:#263238"></path><path d="M129.29,273.86a21.76,21.76,0,0,1-.63,3c-.26,1-.55,2-.88,3,0,.13.14.19.19.06.31-1,.59-2,.83-3s.4-2,.65-3.05C129.47,273.79,129.3,273.76,129.29,273.86Z" style="fill:#263238"></path><path d="M119,280a1.18,1.18,0,0,0-.77-.28l-1.33-.19c-.82-.11-1.65-.2-2.47-.3-1.72-.2-3.43-.36-5.15-.58a.08.08,0,0,0,0,.16c1.62.19,3.23.44,4.85.65.79.1,1.58.22,2.37.31l1.15.13a3.78,3.78,0,0,1,1.3.22A.07.07,0,0,0,119,280Z" style="fill:#263238"></path><path d="M129.27,293.83c-.81-.07-1.63-.1-2.44-.12l-1.23,0-.59,0a3.29,3.29,0,0,1-.77,0c-.11,0-.12.18,0,.16a3.47,3.47,0,0,1,.72,0l.64,0,1.22.07c.81.05,1.63.1,2.44.1A.09.09,0,0,0,129.27,293.83Z" style="fill:#263238"></path><path d="M134.23,290.31l.27-1.38c.16-.91.33-1.81.5-2.72a.08.08,0,0,0-.16,0l-.6,2.65c-.1.44-.2.88-.29,1.33,0,.2-.08.41-.13.61a1.78,1.78,0,0,0-.07.65.1.1,0,0,0,.18.05A3.21,3.21,0,0,0,134.23,290.31Z" style="fill:#263238"></path><polygon points="86.57 310.32 87.55 321.46 90.88 359.1 120.35 359.1 124.51 321.46 125.74 310.32 86.57 310.32" style="fill:#37474f"></polygon><polygon points="86.57 310.32 87.55 321.46 124.51 321.46 125.74 310.32 86.57 310.32" style="fill:#263238"></polygon><rect x="83.65" y="307.28" width="45.01" height="9.04" transform="translate(212.31 623.6) rotate(180)" style="fill:#37474f"></rect></g><g id="freepik--Floor--inject-40"><polygon points="50.72 359.19 131.79 358.94 212.86 358.86 375 358.69 537.14 358.86 618.21 358.94 699.28 359.19 618.21 359.43 537.14 359.52 375 359.69 212.86 359.52 131.79 359.43 50.72 359.19" style="fill:#263238"></polygon></g><g id="freepik--Device--inject-40"><rect x="138.36" y="63.91" width="471.59" height="315.46" style="fill:#ebebeb"></rect><rect x="141.79" y="67.76" width="464.73" height="307.76" style="fill:#263238"></rect><rect x="76.94" y="403.03" width="594.43" height="21.65" style="fill:#dbdbdb"></rect><polygon points="76.94 403.03 138.37 379.37 609.95 379.37 671.38 403.03 76.94 403.03" style="fill:#ebebeb"></polygon><polygon points="143.85 394.64 183.49 379.37 564.83 379.37 604.47 394.64 143.85 394.64" style="fill:#263238"></polygon><rect x="168.06" y="91.14" width="412.21" height="261" style="fill:#fff"></rect><rect x="168.06" y="91.14" width="412.21" height="10.04" style="fill:#455a64"></rect><path d="M176.25,96.16A2.13,2.13,0,1,1,174.12,94,2.13,2.13,0,0,1,176.25,96.16Z" style="fill:#c7c7c7"></path><path d="M184.93,96.16A2.13,2.13,0,1,1,182.8,94,2.13,2.13,0,0,1,184.93,96.16Z" style="fill:#fff"></path><path d="M193.61,96.16A2.13,2.13,0,1,1,191.48,94,2.13,2.13,0,0,1,193.61,96.16Z" style="fill:#407BFF"></path></g><g id="freepik--Screens--inject-40"><rect x="159.57" y="99.76" width="412.21" height="261" style="fill:#fff"></rect><path d="M572,361H159.32V99.51H572Zm-412.21-.5H571.53V100H159.82Z" style="fill:#263238"></path><rect x="159.57" y="99.76" width="412.21" height="10.04" style="fill:#455a64"></rect><path d="M167.77,104.78a2.13,2.13,0,1,1-2.13-2.12A2.13,2.13,0,0,1,167.77,104.78Z" style="fill:#c7c7c7"></path><path d="M176.45,104.78a2.13,2.13,0,1,1-2.13-2.12A2.13,2.13,0,0,1,176.45,104.78Z" style="fill:#fff"></path><path d="M185.13,104.78a2.13,2.13,0,1,1-2.13-2.12A2.13,2.13,0,0,1,185.13,104.78Z" style="fill:#407BFF"></path><rect x="159.57" y="109.81" width="412.21" height="23.79" style="fill:#407BFF"></rect><rect x="159.57" y="133.6" width="412.21" height="16.87" style="fill:#ebebeb"></rect><rect x="164.48" y="115.11" width="7.99" height="7.99" style="fill:#fff"></rect><rect x="178.76" y="115.11" width="84.85" height="3.99" style="fill:#fff"></rect><rect x="164.48" y="136.04" width="7.99" height="7.99" style="fill:#dbdbdb"></rect><rect x="168.2" y="140.03" width="7.99" height="7.99" style="fill:#fff"></rect><rect x="191.62" y="136.04" width="84.85" height="3.99" style="fill:#fff"></rect><rect x="191.62" y="144.03" width="16.7" height="3.99" style="fill:#fff"></rect><rect x="214.33" y="144.03" width="16.7" height="3.99" style="fill:#fff"></rect><rect x="237.05" y="144.03" width="16.7" height="3.99" style="fill:#fff"></rect><rect x="259.77" y="144.03" width="16.7" height="3.99" style="fill:#fff"></rect><rect x="282.57" y="136.04" width="9.14" height="3.99" style="fill:#fff"></rect><rect x="282.57" y="144.03" width="9.14" height="3.99" style="fill:#fff"></rect><rect x="299.29" y="136.04" width="4.57" height="3.99" style="fill:#dbdbdb"></rect><rect x="299.29" y="144.03" width="4.57" height="3.99" style="fill:#dbdbdb"></rect><rect x="307.07" y="136.04" width="8.95" height="3.99" style="fill:#dbdbdb"></rect><rect x="307.07" y="144.03" width="8.95" height="3.99" style="fill:#dbdbdb"></rect><rect x="320.29" y="136.04" width="65.45" height="3.99" style="fill:#dbdbdb"></rect><rect x="320.29" y="144.03" width="65.45" height="3.99" style="fill:#dbdbdb"></rect><rect x="391.81" y="136.04" width="11.98" height="11.98" style="fill:#fff"></rect><rect x="410.17" y="136.04" width="11.98" height="11.98" style="fill:#fff"></rect><rect x="428.54" y="136.04" width="11.98" height="11.98" style="fill:#fff"></rect><rect x="446.9" y="136.04" width="11.98" height="11.98" style="fill:#fff"></rect><rect x="465.27" y="136.04" width="11.98" height="11.98" style="fill:#fff"></rect><rect x="551.91" y="136.04" width="11.98" height="2.36" style="fill:#fff"></rect><rect x="551.91" y="140.85" width="11.98" height="2.36" style="fill:#fff"></rect><rect x="551.91" y="145.66" width="11.98" height="2.36" style="fill:#fff"></rect><rect x="381.79" y="202.04" width="167.46" height="12.89" style="fill:#407BFF"></rect><rect x="507.39" y="202.04" width="41.86" height="12.89" style="fill:#fff;opacity:0.30000000000000004"></rect><rect x="381.79" y="214.94" width="167.46" height="77.37" style="fill:#dbdbdb"></rect><rect x="507.39" y="214.94" width="41.86" height="77.37" style="fill:#ebebeb"></rect><rect x="381.79" y="305.2" width="167.46" height="12.89" style="fill:#407BFF"></rect><rect x="507.39" y="305.2" width="41.86" height="12.89" style="opacity:0.1"></rect><rect x="381.79" y="318.09" width="167.46" height="25.79" style="fill:#407BFF;opacity:0.5"></rect><rect x="507.39" y="318.09" width="41.86" height="25.79" style="fill:#407BFF"></rect><rect x="159.57" y="150.46" width="12.89" height="210.3" style="fill:#407BFF;opacity:0.5"></rect><rect x="365.68" y="-42.75" width="12.89" height="399.31" transform="translate(215.21 529.04) rotate(-90)" style="fill:#407BFF;opacity:0.5"></rect><path d="M172.47,150.46a49.82,49.82,0,0,1,.37,6.45,48.11,48.11,0,0,1-.37,6.45,48.12,48.12,0,0,1-.38-6.45A49.84,49.84,0,0,1,172.47,150.46Z" style="fill:#407BFF"></path><path d="M214.33,150.46a54.93,54.93,0,0,1,0,12.9,56.4,56.4,0,0,1,0-12.9Z" style="fill:#407BFF"></path><path d="M256.2,150.46a49.82,49.82,0,0,1,.37,6.45,48.11,48.11,0,0,1-.37,6.45,48.12,48.12,0,0,1-.38-6.45A49.84,49.84,0,0,1,256.2,150.46Z" style="fill:#407BFF"></path><path d="M298.06,150.46a54.93,54.93,0,0,1,0,12.9,56.4,56.4,0,0,1,0-12.9Z" style="fill:#407BFF"></path><path d="M339.93,150.46a56.4,56.4,0,0,1,0,12.9,48.12,48.12,0,0,1-.38-6.45A49.84,49.84,0,0,1,339.93,150.46Z" style="fill:#407BFF"></path><path d="M381.79,150.46a54.93,54.93,0,0,1,0,12.9,56.4,56.4,0,0,1,0-12.9Z" style="fill:#407BFF"></path><path d="M423.66,150.46a56.4,56.4,0,0,1,0,12.9,54.93,54.93,0,0,1,0-12.9Z" style="fill:#407BFF"></path><path d="M465.52,150.46a54.93,54.93,0,0,1,0,12.9,56.4,56.4,0,0,1,0-12.9Z" style="fill:#407BFF"></path><path d="M507.39,150.46a56.4,56.4,0,0,1,0,12.9,54.93,54.93,0,0,1,0-12.9Z" style="fill:#407BFF"></path><path d="M549.25,150.46a49.84,49.84,0,0,1,.38,6.45,48.12,48.12,0,0,1-.38,6.45,56.4,56.4,0,0,1,0-12.9Z" style="fill:#407BFF"></path><path d="M159.57,163.36A49.84,49.84,0,0,1,166,163a48.12,48.12,0,0,1,6.45.38,48.11,48.11,0,0,1-6.45.37A49.82,49.82,0,0,1,159.57,163.36Z" style="fill:#407BFF"></path><path d="M159.57,176.25a56.4,56.4,0,0,1,12.9,0,54.93,54.93,0,0,1-12.9,0Z" style="fill:#407BFF"></path><path d="M159.57,189.15a54.93,54.93,0,0,1,12.9,0,56.4,56.4,0,0,1-12.9,0Z" style="fill:#407BFF"></path><path d="M159.57,202a56.4,56.4,0,0,1,12.9,0,48.12,48.12,0,0,1-6.45.38A49.84,49.84,0,0,1,159.57,202Z" style="fill:#407BFF"></path><path d="M159.57,214.94a54.93,54.93,0,0,1,12.9,0,56.4,56.4,0,0,1-12.9,0Z" style="fill:#407BFF"></path><path d="M159.57,227.83a49.82,49.82,0,0,1,6.45-.37,48.11,48.11,0,0,1,6.45.37,48.12,48.12,0,0,1-6.45.38A49.84,49.84,0,0,1,159.57,227.83Z" style="fill:#407BFF"></path><path d="M159.57,240.73a54.93,54.93,0,0,1,12.9,0,56.4,56.4,0,0,1-12.9,0Z" style="fill:#407BFF"></path><path d="M159.57,253.62a54.93,54.93,0,0,1,12.9,0A48.11,48.11,0,0,1,166,254,49.82,49.82,0,0,1,159.57,253.62Z" style="fill:#407BFF"></path><path d="M159.57,266.51a56.4,56.4,0,0,1,12.9,0,54.93,54.93,0,0,1-12.9,0Z" style="fill:#407BFF"></path><path d="M159.57,279.41A49.84,49.84,0,0,1,166,279a48.12,48.12,0,0,1,6.45.38,48.11,48.11,0,0,1-6.45.37A49.82,49.82,0,0,1,159.57,279.41Z" style="fill:#407BFF"></path><path d="M159.57,292.3a56.4,56.4,0,0,1,12.9,0,54.93,54.93,0,0,1-12.9,0Z" style="fill:#407BFF"></path><path d="M159.57,305.2a54.93,54.93,0,0,1,12.9,0,56.4,56.4,0,0,1-12.9,0Z" style="fill:#407BFF"></path><path d="M159.57,318.09a56.4,56.4,0,0,1,12.9,0,48.12,48.12,0,0,1-6.45.38A49.84,49.84,0,0,1,159.57,318.09Z" style="fill:#407BFF"></path><path d="M159.57,331a54.93,54.93,0,0,1,12.9,0,56.4,56.4,0,0,1-12.9,0Z" style="fill:#407BFF"></path><path d="M159.57,343.88a49.82,49.82,0,0,1,6.45-.37,48.11,48.11,0,0,1,6.45.37,54.93,54.93,0,0,1-12.9,0Z" style="fill:#407BFF"></path><path d="M159.57,356.77a56.4,56.4,0,0,1,12.9,0,54.93,54.93,0,0,1-12.9,0Z" style="fill:#407BFF"></path><polygon points="214.33 163.36 214.52 188.03 214.58 212.71 214.71 262.06 214.58 311.41 214.52 336.08 214.33 360.76 214.15 336.08 214.08 311.41 213.96 262.06 214.09 212.71 214.15 188.03 214.33 163.36" style="fill:#ebebeb"></polygon><polygon points="256.2 163.36 256.38 188.03 256.45 212.71 256.57 262.06 256.45 311.41 256.38 336.08 256.2 360.76 256.01 336.08 255.95 311.41 255.82 262.06 255.95 212.71 256.02 188.03 256.2 163.36" style="fill:#ebebeb"></polygon><polygon points="298.06 163.36 298.25 188.03 298.31 212.71 298.44 262.06 298.31 311.41 298.25 336.08 298.06 360.76 297.88 336.08 297.81 311.41 297.69 262.06 297.81 212.71 297.88 188.03 298.06 163.36" style="fill:#ebebeb"></polygon><polygon points="339.93 163.36 340.11 188.03 340.18 212.71 340.3 262.06 340.18 311.41 340.11 336.08 339.93 360.76 339.74 336.08 339.68 311.41 339.55 262.06 339.68 212.71 339.75 188.03 339.93 163.36" style="fill:#ebebeb"></polygon><polygon points="381.79 163.36 381.98 188.03 382.04 212.71 382.17 262.06 382.04 311.41 381.98 336.08 381.79 360.76 381.61 336.08 381.54 311.41 381.42 262.06 381.54 212.71 381.61 188.03 381.79 163.36" style="fill:#ebebeb"></polygon><polygon points="423.66 163.36 423.84 188.03 423.91 212.71 424.03 262.06 423.91 311.41 423.84 336.08 423.66 360.76 423.47 336.08 423.41 311.41 423.28 262.06 423.41 212.71 423.48 188.03 423.66 163.36" style="fill:#ebebeb"></polygon><polygon points="465.52 163.36 465.7 188.03 465.77 212.71 465.9 262.06 465.77 311.41 465.71 336.08 465.52 360.76 465.34 336.08 465.27 311.41 465.15 262.06 465.27 212.71 465.34 188.03 465.52 163.36" style="fill:#ebebeb"></polygon><polygon points="507.39 163.36 507.57 188.03 507.63 212.71 507.76 262.06 507.64 311.41 507.57 336.08 507.39 360.76 507.2 336.08 507.14 311.41 507.01 262.06 507.14 212.71 507.2 188.03 507.39 163.36" style="fill:#ebebeb"></polygon><polygon points="549.25 163.36 549.43 188.03 549.5 212.71 549.63 262.06 549.5 311.41 549.43 336.08 549.25 360.76 549.07 336.08 549 311.41 548.88 262.06 549 212.71 549.07 188.03 549.25 163.36" style="fill:#ebebeb"></polygon><polygon points="172.31 163.36 222.25 163.18 272.18 163.11 372.05 162.99 471.92 163.11 521.85 163.18 571.78 163.36 521.85 163.54 471.92 163.61 372.05 163.73 272.18 163.61 222.25 163.54 172.31 163.36" style="fill:#ebebeb"></polygon><polygon points="172.31 176.25 222.25 176.07 272.18 176 372.05 175.88 471.92 176 521.85 176.07 571.78 176.25 521.85 176.44 471.92 176.5 372.05 176.63 272.18 176.5 222.25 176.44 172.31 176.25" style="fill:#ebebeb"></polygon><polygon points="172.31 189.15 222.25 188.97 272.18 188.9 372.05 188.77 471.92 188.9 521.85 188.96 571.78 189.15 521.85 189.33 471.92 189.4 372.05 189.52 272.18 189.4 222.25 189.33 172.31 189.15" style="fill:#ebebeb"></polygon><polygon points="172.31 202.04 222.25 201.86 272.18 201.79 372.05 201.67 471.92 201.79 521.85 201.86 571.78 202.04 521.85 202.23 471.92 202.29 372.05 202.42 272.18 202.29 222.25 202.22 172.31 202.04" style="fill:#ebebeb"></polygon><polygon points="172.31 214.94 222.25 214.75 272.18 214.69 372.05 214.56 471.92 214.69 521.85 214.75 571.78 214.94 521.85 215.12 471.92 215.19 372.05 215.31 272.18 215.19 222.25 215.12 172.31 214.94" style="fill:#ebebeb"></polygon><polygon points="172.31 227.83 222.25 227.65 272.18 227.58 372.05 227.46 471.92 227.58 521.85 227.65 571.78 227.83 521.85 228.01 471.92 228.08 372.05 228.21 272.18 228.08 222.25 228.01 172.31 227.83" style="fill:#ebebeb"></polygon><polygon points="172.31 240.72 222.25 240.54 272.18 240.48 372.05 240.35 471.92 240.48 521.85 240.54 571.78 240.72 521.85 240.91 471.92 240.97 372.05 241.1 272.18 240.97 222.25 240.91 172.31 240.72" style="fill:#ebebeb"></polygon><polygon points="172.31 253.62 222.25 253.44 272.18 253.37 372.05 253.25 471.92 253.37 521.85 253.44 571.78 253.62 521.85 253.8 471.92 253.87 372.05 253.99 272.18 253.87 222.25 253.8 172.31 253.62" style="fill:#ebebeb"></polygon><polygon points="172.31 266.51 222.25 266.33 272.18 266.27 372.05 266.14 471.92 266.26 521.85 266.33 571.78 266.51 521.85 266.7 471.92 266.76 372.05 266.89 272.18 266.76 222.25 266.7 172.31 266.51" style="fill:#ebebeb"></polygon><polygon points="172.31 279.41 222.25 279.23 272.18 279.16 372.05 279.03 471.92 279.16 521.85 279.23 571.78 279.41 521.85 279.59 471.92 279.66 372.05 279.78 272.18 279.66 222.25 279.59 172.31 279.41" style="fill:#ebebeb"></polygon><polygon points="172.31 292.3 222.25 292.12 272.18 292.05 372.05 291.93 471.92 292.05 521.85 292.12 571.78 292.3 521.85 292.49 471.92 292.55 372.05 292.68 272.18 292.55 222.25 292.49 172.31 292.3" style="fill:#ebebeb"></polygon><polygon points="172.31 305.2 222.25 305.01 272.18 304.95 372.05 304.82 471.92 304.95 521.85 305.01 571.78 305.2 521.85 305.38 471.92 305.45 372.05 305.57 272.18 305.45 222.25 305.38 172.31 305.2" style="fill:#ebebeb"></polygon><polygon points="172.31 318.09 222.25 317.91 272.18 317.84 372.05 317.72 471.92 317.84 521.85 317.91 571.78 318.09 521.85 318.27 471.92 318.34 372.05 318.47 272.18 318.34 222.25 318.27 172.31 318.09" style="fill:#ebebeb"></polygon><polygon points="172.31 330.99 222.25 330.8 272.18 330.74 372.05 330.61 471.92 330.74 521.85 330.8 571.78 330.99 521.85 331.17 471.92 331.24 372.05 331.36 272.18 331.24 222.25 331.17 172.31 330.99" style="fill:#ebebeb"></polygon><polygon points="172.31 343.88 222.25 343.7 272.18 343.63 372.05 343.51 471.92 343.63 521.85 343.7 571.78 343.88 521.85 344.06 471.92 344.13 372.05 344.25 272.18 344.13 222.25 344.06 172.31 343.88" style="fill:#ebebeb"></polygon><polygon points="172.31 356.77 222.25 356.59 272.18 356.53 372.05 356.4 471.92 356.53 521.85 356.59 571.78 356.77 521.85 356.96 471.92 357.02 372.05 357.15 272.18 357.02 222.25 356.96 172.31 356.77" style="fill:#ebebeb"></polygon><rect x="359.15" y="-23.4" width="25.79" height="399.31" transform="translate(195.79 548.3) rotate(-90)" style="fill:#407BFF"></rect><path d="M276,173.13c8-.22,16-.32,24-.49l24-.27c16-.17,32-.15,48.05-.24,16,.08,32,.07,48,.23l24,.28c8,.17,16,.26,24,.49-8,.23-16,.33-24,.49l-24,.28c-16,.16-32,.15-48,.23-16-.08-32-.07-48.05-.23l-24-.28C292.06,173.45,284.05,173.36,276,173.13Z" style="fill:#fff"></path><path d="M294.41,179.38c6.48-.23,12.95-.33,19.43-.49l19.43-.28c13-.16,25.9-.15,38.86-.23,12.95.07,25.9.07,38.85.23l19.43.28c6.48.16,13,.26,19.43.49-6.47.22-12.95.32-19.43.49l-19.43.27c-13,.16-25.9.16-38.85.23-13-.08-25.91-.06-38.86-.23l-19.43-.28C307.36,179.7,300.89,179.6,294.41,179.38Z" style="fill:#fff"></path><path d="M390.14,208.49q13.55-.59,27.08-.78c9-.16,18.06-.2,27.09-.22s18.05.06,27.08.22,18.06.39,27.08.78q-13.53.58-27.08.78c-9,.16-18.06.2-27.08.22s-18.06-.06-27.09-.22S399.17,208.88,390.14,208.49Z" style="fill:#fff"></path><path d="M513.65,208.49a67,67,0,0,1,7.16-.78c2.38-.16,4.77-.2,7.15-.22s4.78.06,7.16.22a64.47,64.47,0,0,1,7.16.78,64.47,64.47,0,0,1-7.16.78c-2.38.16-4.77.2-7.16.22s-4.77-.06-7.15-.22A67,67,0,0,1,513.65,208.49Z" style="fill:#fff"></path><path d="M390.14,221.38c5.08-.41,10.16-.63,15.24-.77s10.16-.21,15.23-.23,10.16.06,15.24.22,10.16.37,15.24.78c-5.08.42-10.16.64-15.24.78s-10.16.21-15.24.22-10.15-.06-15.23-.22S395.22,221.8,390.14,221.38Z" style="fill:#a6a6a6"></path><path d="M457.88,221.38c3.17-.41,6.33-.63,9.49-.77s6.32-.21,9.48-.23,6.32.06,9.48.22,6.33.37,9.49.78c-3.16.42-6.32.64-9.49.78s-6.32.21-9.48.22-6.32-.06-9.48-.22S461.05,221.8,457.88,221.38Z" style="fill:#a6a6a6"></path><path d="M515.61,221.38a51.09,51.09,0,0,1,6.36-.77c2.11-.16,4.23-.21,6.35-.23s4.24.06,6.35.22a53.08,53.08,0,0,1,6.36.78,49.3,49.3,0,0,1-6.36.78c-2.11.16-4.23.21-6.35.22s-4.24-.06-6.35-.22A51.12,51.12,0,0,1,515.61,221.38Z" style="fill:#a6a6a6"></path><path d="M520.48,234.28a33.67,33.67,0,0,1,5.13-.78c1.72-.15,3.43-.22,5.14-.22s3.43.07,5.14.22a32.77,32.77,0,0,1,5.14.78,35.3,35.3,0,0,1-5.14.78c-1.71.14-3.43.22-5.14.22s-3.42-.08-5.14-.22A35,35,0,0,1,520.48,234.28Z" style="fill:#a6a6a6"></path><path d="M525.29,247.17a20.22,20.22,0,0,1,3.93-.77,34.7,34.7,0,0,1,3.94-.23,37,37,0,0,1,3.93.22,21.13,21.13,0,0,1,3.94.78,19.63,19.63,0,0,1-3.94.78,32.36,32.36,0,0,1-3.93.22,34.69,34.69,0,0,1-3.94-.22A20.25,20.25,0,0,1,525.29,247.17Z" style="fill:#a6a6a6"></path><path d="M515.61,260.07a51.12,51.12,0,0,1,6.36-.78c2.11-.16,4.23-.2,6.35-.22s4.24.06,6.35.22a49.3,49.3,0,0,1,6.36.78,53.08,53.08,0,0,1-6.36.78c-2.11.16-4.23.2-6.35.22s-4.24-.07-6.35-.23A51.09,51.09,0,0,1,515.61,260.07Z" style="fill:#a6a6a6"></path><path d="M520.48,273a35,35,0,0,1,5.13-.78c1.72-.14,3.43-.22,5.14-.22s3.43.08,5.14.22A35.3,35.3,0,0,1,541,273a32.77,32.77,0,0,1-5.14.78c-1.71.15-3.43.23-5.14.22s-3.42-.08-5.14-.22A33.67,33.67,0,0,1,520.48,273Z" style="fill:#a6a6a6"></path><path d="M515.61,285.86a51.12,51.12,0,0,1,6.36-.78c2.11-.16,4.23-.2,6.35-.22s4.24.06,6.35.22a49.3,49.3,0,0,1,6.36.78,53.08,53.08,0,0,1-6.36.78c-2.11.16-4.23.2-6.35.22s-4.24-.07-6.35-.23A51.09,51.09,0,0,1,515.61,285.86Z" style="fill:#a6a6a6"></path><path d="M390.14,234.28q8.48-.59,16.94-.78c5.64-.16,11.29-.2,16.93-.22s11.29.06,16.94.22,11.29.39,16.93.78q-8.46.58-16.93.78c-5.65.16-11.29.2-16.94.22s-11.29-.06-16.93-.22S395.79,234.66,390.14,234.28Z" style="fill:#a6a6a6"></path><path d="M390.14,247.17q11.26-.57,22.54-.77c7.51-.16,15-.21,22.54-.23s15,.06,22.53.22,15,.39,22.54.78q-11.27.59-22.54.78c-7.51.16-15,.2-22.53.22s-15-.06-22.54-.22S397.65,247.56,390.14,247.17Z" style="fill:#a6a6a6"></path><path d="M390.14,260.07c5.08-.42,10.16-.63,15.24-.78s10.16-.2,15.23-.22,10.16.06,15.24.22,10.16.36,15.24.78c-5.08.41-10.16.63-15.24.78s-10.16.2-15.24.22-10.15-.07-15.23-.23S395.22,260.48,390.14,260.07Z" style="fill:#a6a6a6"></path><path d="M390.14,273q9.42-.58,18.85-.78c6.28-.16,12.56-.2,18.84-.22s12.57.06,18.85.22,12.56.39,18.84.78q-9.42.59-18.84.78c-6.28.16-12.57.2-18.85.22s-12.56-.06-18.84-.22S396.42,273.35,390.14,273Z" style="fill:#a6a6a6"></path><path d="M390.14,285.86a75.71,75.71,0,0,1,7.77-.78c2.59-.16,5.18-.2,7.76-.22s5.18.06,7.77.22a73,73,0,0,1,7.77.78c-2.59.41-5.18.63-7.77.78s-5.18.2-7.77.22-5.17-.07-7.76-.23A75.68,75.68,0,0,1,390.14,285.86Z" style="fill:#a6a6a6"></path><path d="M390.14,311.64q13.55-.57,27.08-.77c9-.16,18.06-.2,27.09-.22s18.05.06,27.08.21,18.06.4,27.08.78q-13.53.58-27.08.78c-9,.16-18.06.21-27.08.22s-18.06-.06-27.09-.22S399.17,312,390.14,311.64Z" style="fill:#fff"></path><path d="M513.65,311.64a64.44,64.44,0,0,1,7.16-.77c2.38-.16,4.77-.2,7.15-.22s4.78.06,7.16.21a67,67,0,0,1,7.16.78,62.17,62.17,0,0,1-7.16.78c-2.38.16-4.77.21-7.16.22s-4.77-.06-7.15-.22A64.47,64.47,0,0,1,513.65,311.64Z" style="fill:#fff"></path><path d="M390.14,324.54c5.08-.41,10.16-.63,15.24-.78s10.16-.2,15.23-.22,10.16.06,15.24.22,10.16.36,15.24.78c-5.08.42-10.16.63-15.24.78s-10.16.2-15.24.22-10.15-.06-15.23-.22S395.22,325,390.14,324.54Z" style="fill:#a6a6a6"></path><path d="M457.88,324.54c3.17-.41,6.33-.63,9.49-.78s6.32-.2,9.48-.22,6.32.06,9.48.22,6.33.36,9.49.78c-3.16.42-6.32.63-9.49.78s-6.32.2-9.48.22-6.32-.06-9.48-.22S461.05,325,457.88,324.54Z" style="fill:#a6a6a6"></path><path d="M515.61,324.54a53.08,53.08,0,0,1,6.36-.78c2.11-.16,4.23-.2,6.35-.22s4.24.06,6.35.22a51.12,51.12,0,0,1,6.36.78,51.12,51.12,0,0,1-6.36.78c-2.11.16-4.23.2-6.35.22s-4.24-.06-6.35-.22A53.08,53.08,0,0,1,515.61,324.54Z" style="fill:#a6a6a6"></path><path d="M520.48,337.43a33.64,33.64,0,0,1,5.13-.77c1.72-.15,3.43-.23,5.14-.23s3.43.08,5.14.22a35.3,35.3,0,0,1,5.14.78,32.77,32.77,0,0,1-5.14.78c-1.71.15-3.43.23-5.14.22s-3.42-.07-5.14-.22A33.67,33.67,0,0,1,520.48,337.43Z" style="fill:#a6a6a6"></path><path d="M390.14,337.43q8.48-.57,16.94-.77c5.64-.16,11.29-.21,16.93-.23s11.29.06,16.94.22,11.29.39,16.93.78q-8.46.58-16.93.78c-5.65.16-11.29.21-16.94.22s-11.29-.06-16.93-.22S395.79,337.82,390.14,337.43Z" style="fill:#a6a6a6"></path><path d="M210.85,205.84l64.54-.19c21.51.07,43,0,64.54.19-21.51.16-43,.12-64.54.18Z" style="fill:#dbdbdb"></path><path d="M210.85,211.53l64.54-.18c21.51.06,43,0,64.54.18-21.51.16-43,.12-64.54.19Z" style="fill:#dbdbdb"></path><path d="M210.85,217.22l64.54-.18c21.51.06,43,0,64.54.18-21.51.16-43,.12-64.54.19Z" style="fill:#dbdbdb"></path><path d="M210.85,222.92l64.54-.19c21.51.07,43,0,64.54.19-21.51.16-43,.12-64.54.18Z" style="fill:#dbdbdb"></path><path d="M210.85,228.61l64.54-.18c21.51.06,43,0,64.54.18-21.51.16-43,.12-64.54.19Z" style="fill:#dbdbdb"></path><path d="M210.85,234.3l64.54-.18c21.51.07,43,0,64.54.18-21.51.16-43,.12-64.54.19Z" style="fill:#dbdbdb"></path><path d="M210.85,240l64.54-.19c21.51.07,43,0,64.54.19-21.51.16-43,.12-64.54.18Z" style="fill:#dbdbdb"></path><path d="M210.85,245.69l64.54-.18c21.51.06,43,0,64.54.18-21.51.16-43,.12-64.54.19Z" style="fill:#dbdbdb"></path><path d="M210.85,251.39l64.54-.19c21.51.07,43,0,64.54.19-21.51.16-43,.11-64.54.18Z" style="fill:#dbdbdb"></path><path d="M210.85,257.08l64.54-.19c21.51.07,43,0,64.54.19-21.51.16-43,.12-64.54.18Z" style="fill:#dbdbdb"></path><path d="M210.85,262.77l64.54-.18c21.51.06,43,0,64.54.18-21.51.16-43,.12-64.54.19Z" style="fill:#dbdbdb"></path><path d="M210.85,268.47l64.54-.19c21.51.07,43,0,64.54.19-21.51.16-43,.11-64.54.18Z" style="fill:#dbdbdb"></path><path d="M210.85,274.16l64.54-.19c21.51.07,43,0,64.54.19-21.51.16-43,.12-64.54.18Z" style="fill:#dbdbdb"></path><path d="M210.85,279.85l64.54-.18c21.51.06,43,0,64.54.18-21.51.16-43,.12-64.54.19Z" style="fill:#dbdbdb"></path><path d="M210.85,285.55l64.54-.19c21.51.07,43,0,64.54.19-21.51.16-43,.12-64.54.18Z" style="fill:#dbdbdb"></path><rect x="224.5" y="245.69" width="9.79" height="46.49" style="fill:#407BFF"></rect><rect x="242.66" y="226.03" width="9.79" height="66.16" style="fill:#dbdbdb"></rect><rect x="260.82" y="240.2" width="9.79" height="51.99" style="fill:#a6a6a6"></rect><rect x="278.98" y="222.92" width="9.79" height="69.27" style="fill:#407BFF"></rect><rect x="297.13" y="232.21" width="9.79" height="59.98" style="fill:#dbdbdb"></rect><rect x="315.29" y="266.19" width="9.79" height="25.99" style="fill:#a6a6a6"></rect><path d="M214.36,201.84l.26,22.59.19,22.58q.18,22.59.18,45.17l-.63-.68,31.39,0,31.39.08,31.4.22,31.39.41-31.39.41-31.4.23-31.39.08-31.39,0h-.64v-.69q0-22.57.19-45.17l.18-22.58Z" style="fill:#dbdbdb"></path><rect x="224.5" y="296.96" width="9.79" height="0.96" style="fill:#dbdbdb"></rect><rect x="242.66" y="296.96" width="9.79" height="0.96" style="fill:#dbdbdb"></rect><rect x="260.82" y="296.96" width="9.79" height="0.96" style="fill:#dbdbdb"></rect><rect x="278.98" y="296.96" width="9.79" height="0.96" style="fill:#dbdbdb"></rect><rect x="297.13" y="296.96" width="9.79" height="0.96" style="fill:#dbdbdb"></rect><rect x="315.29" y="296.96" width="9.79" height="0.96" style="fill:#dbdbdb"></rect><rect x="214.59" y="308.87" width="5.42" height="5.42" style="fill:#407BFF"></rect><rect x="214.59" y="321.83" width="5.42" height="5.42" style="fill:#dbdbdb"></rect><rect x="214.59" y="334.79" width="5.42" height="5.42" style="fill:#a6a6a6"></rect><path d="M225.53,309.79c3.44-.41,6.88-.63,10.33-.78s6.89-.2,10.33-.22,6.89.06,10.33.22,6.89.37,10.33.78c-3.44.42-6.89.64-10.33.78s-6.89.2-10.33.22-6.89-.06-10.33-.22S229,310.21,225.53,309.79Z" style="fill:#a6a6a6"></path><path d="M225.53,313.37a60.3,60.3,0,0,1,6.92-.78c2.31-.16,4.61-.2,6.92-.22s4.62.06,6.92.22a58.31,58.31,0,0,1,6.93.78,62.79,62.79,0,0,1-6.93.78c-2.3.16-4.61.2-6.92.22s-4.61-.06-6.92-.22A62.61,62.61,0,0,1,225.53,313.37Z" style="fill:#a6a6a6"></path><path d="M225.53,322.75a29.6,29.6,0,0,1,4.72-.78c1.57-.14,3.14-.22,4.71-.22s3.15.08,4.72.22a28.69,28.69,0,0,1,4.72.78,28.69,28.69,0,0,1-4.72.78,46.46,46.46,0,0,1-4.72.22c-1.57,0-3.14-.08-4.71-.22A29.6,29.6,0,0,1,225.53,322.75Z" style="fill:#a6a6a6"></path><path d="M225.53,326.33a79.21,79.21,0,0,1,7.95-.78c2.65-.16,5.31-.2,8-.22s5.3.06,7.95.22a76.57,76.57,0,0,1,8,.78c-2.65.41-5.31.63-8,.78s-5.3.2-7.95.22-5.31-.07-8-.23A79.18,79.18,0,0,1,225.53,326.33Z" style="fill:#a6a6a6"></path><path d="M225.53,335.71c2.84-.41,5.69-.63,8.53-.78s5.69-.2,8.54-.22,5.69.06,8.53.22,5.69.36,8.54.78c-2.85.42-5.69.63-8.54.78s-5.69.2-8.53.22-5.69-.06-8.54-.22S228.37,336.12,225.53,335.71Z" style="fill:#a6a6a6"></path><path d="M225.53,339.29c3.72-.42,7.44-.63,11.16-.78s7.43-.2,11.15-.22,7.44.06,11.16.22,7.44.36,11.16.78c-3.72.41-7.44.63-11.16.78s-7.44.2-11.16.21-7.44-.06-11.15-.22S229.25,339.7,225.53,339.29Z" style="fill:#a6a6a6"></path><rect x="178.22" y="78.99" width="412.21" height="261" style="fill:#fff"></rect><path d="M590.68,340.24H178V78.74H590.68Zm-412.21-.5H590.18V79.24H178.47Z" style="fill:#263238"></path><rect x="178.22" y="78.99" width="412.21" height="10.04" style="fill:#455a64"></rect><path d="M186.41,84a2.13,2.13,0,1,1-2.12-2.12A2.12,2.12,0,0,1,186.41,84Z" style="fill:#c7c7c7"></path><path d="M195.09,84A2.13,2.13,0,1,1,193,81.89,2.12,2.12,0,0,1,195.09,84Z" style="fill:#fff"></path><circle cx="201.64" cy="84.01" r="2.13" style="fill:#407BFF"></circle><rect x="178.22" y="89.03" width="412.21" height="23.79" style="fill:#407BFF"></rect><rect x="178.22" y="112.82" width="412.21" height="16.87" style="fill:#ebebeb"></rect><rect x="183.12" y="94.34" width="7.99" height="7.99" style="fill:#fff"></rect><rect x="197.4" y="94.34" width="84.85" height="3.99" style="fill:#fff"></rect><rect x="183.12" y="115.26" width="7.99" height="7.99" style="fill:#dbdbdb"></rect><rect x="186.84" y="119.26" width="7.99" height="7.99" style="fill:#fff"></rect><rect x="210.26" y="115.26" width="84.85" height="3.99" style="fill:#fff"></rect><rect x="210.26" y="123.25" width="16.7" height="3.99" style="fill:#fff"></rect><rect x="232.98" y="123.25" width="16.7" height="3.99" style="fill:#fff"></rect><rect x="255.69" y="123.25" width="16.7" height="3.99" style="fill:#fff"></rect><rect x="278.41" y="123.25" width="16.7" height="3.99" style="fill:#fff"></rect><rect x="301.22" y="115.26" width="9.14" height="3.99" style="fill:#fff"></rect><rect x="301.22" y="123.25" width="9.14" height="3.99" style="fill:#fff"></rect><rect x="317.93" y="115.26" width="4.57" height="3.99" style="fill:#dbdbdb"></rect><rect x="317.93" y="123.25" width="4.57" height="3.99" style="fill:#dbdbdb"></rect><rect x="325.71" y="115.26" width="8.95" height="3.99" style="fill:#dbdbdb"></rect><rect x="325.71" y="123.25" width="8.95" height="3.99" style="fill:#dbdbdb"></rect><rect x="338.94" y="115.26" width="65.45" height="3.99" style="fill:#dbdbdb"></rect><rect x="338.94" y="123.25" width="65.45" height="3.99" style="fill:#dbdbdb"></rect><rect x="410.45" y="115.26" width="11.98" height="11.98" style="fill:#fff"></rect><rect x="428.81" y="115.26" width="11.98" height="11.98" style="fill:#fff"></rect><rect x="447.18" y="115.26" width="11.98" height="11.98" style="fill:#fff"></rect><rect x="465.55" y="115.26" width="11.98" height="11.98" style="fill:#fff"></rect><rect x="483.91" y="115.26" width="11.98" height="11.98" style="fill:#fff"></rect><rect x="570.56" y="115.26" width="11.98" height="2.36" style="fill:#fff"></rect><rect x="570.56" y="120.08" width="11.98" height="2.36" style="fill:#fff"></rect><rect x="570.56" y="124.89" width="11.98" height="2.36" style="fill:#fff"></rect><rect x="232.98" y="181.27" width="167.46" height="12.89" style="fill:#407BFF"></rect><rect x="358.57" y="181.27" width="41.86" height="12.89" style="fill:#fff;opacity:0.30000000000000004"></rect><rect x="232.98" y="194.16" width="167.46" height="77.37" style="fill:#dbdbdb"></rect><rect x="358.57" y="194.16" width="41.86" height="77.37" style="fill:#ebebeb"></rect><rect x="232.98" y="284.42" width="167.46" height="12.89" style="fill:#407BFF"></rect><rect x="358.57" y="284.42" width="41.86" height="12.89" style="opacity:0.1"></rect><rect x="232.98" y="297.32" width="167.46" height="25.79" style="fill:#407BFF;opacity:0.5"></rect><rect x="358.57" y="297.32" width="41.86" height="25.79" style="fill:#407BFF"></rect><rect x="178.22" y="129.69" width="12.89" height="210.3" style="fill:#407BFF;opacity:0.5"></rect><rect x="384.32" y="-63.52" width="12.89" height="399.31" transform="translate(254.63 526.91) rotate(-90)" style="fill:#407BFF;opacity:0.5"></rect><path d="M191.11,129.69a49.84,49.84,0,0,1,.38,6.45,48.12,48.12,0,0,1-.38,6.45,56.4,56.4,0,0,1,0-12.9Z" style="fill:#407BFF"></path><path d="M233,129.69a56.4,56.4,0,0,1,0,12.9,54.93,54.93,0,0,1,0-12.9Z" style="fill:#407BFF"></path><path d="M274.84,129.69a49.84,49.84,0,0,1,.38,6.45,48.12,48.12,0,0,1-.38,6.45,48.11,48.11,0,0,1-.37-6.45A49.82,49.82,0,0,1,274.84,129.69Z" style="fill:#407BFF"></path><path d="M316.71,129.69a56.4,56.4,0,0,1,0,12.9,54.93,54.93,0,0,1,0-12.9Z" style="fill:#407BFF"></path><path d="M358.57,129.69a49.84,49.84,0,0,1,.38,6.45,48.12,48.12,0,0,1-.38,6.45,48.11,48.11,0,0,1-.37-6.45A49.82,49.82,0,0,1,358.57,129.69Z" style="fill:#407BFF"></path><path d="M400.44,129.69a56.4,56.4,0,0,1,0,12.9,54.93,54.93,0,0,1,0-12.9Z" style="fill:#407BFF"></path><path d="M442.3,129.69a49.84,49.84,0,0,1,.38,6.45,48.12,48.12,0,0,1-.38,6.45,48.11,48.11,0,0,1-.37-6.45A49.82,49.82,0,0,1,442.3,129.69Z" style="fill:#407BFF"></path><path d="M484.17,129.69a56.4,56.4,0,0,1,0,12.9,54.93,54.93,0,0,1,0-12.9Z" style="fill:#407BFF"></path><path d="M526,129.69a54.93,54.93,0,0,1,0,12.9,48.11,48.11,0,0,1-.37-6.45A49.82,49.82,0,0,1,526,129.69Z" style="fill:#407BFF"></path><path d="M567.9,129.69a56.4,56.4,0,0,1,0,12.9,54.93,54.93,0,0,1,0-12.9Z" style="fill:#407BFF"></path><path d="M178.22,142.59a54.85,54.85,0,0,1,12.89,0,56.32,56.32,0,0,1-12.89,0Z" style="fill:#407BFF"></path><path d="M178.22,155.48a49.77,49.77,0,0,1,6.44-.37,48.11,48.11,0,0,1,6.45.37,48.11,48.11,0,0,1-6.45.37A49.77,49.77,0,0,1,178.22,155.48Z" style="fill:#407BFF"></path><path d="M178.22,168.37a56.32,56.32,0,0,1,12.89,0,54.85,54.85,0,0,1-12.89,0Z" style="fill:#407BFF"></path><path d="M178.22,181.27a49.79,49.79,0,0,1,6.44-.38,48.12,48.12,0,0,1,6.45.38,48.11,48.11,0,0,1-6.45.37A49.77,49.77,0,0,1,178.22,181.27Z" style="fill:#407BFF"></path><path d="M178.22,194.16a56.32,56.32,0,0,1,12.89,0,54.85,54.85,0,0,1-12.89,0Z" style="fill:#407BFF"></path><path d="M178.22,207.06a54.85,54.85,0,0,1,12.89,0,56.32,56.32,0,0,1-12.89,0Z" style="fill:#407BFF"></path><path d="M178.22,220a56.32,56.32,0,0,1,12.89,0,48.12,48.12,0,0,1-6.45.38A49.79,49.79,0,0,1,178.22,220Z" style="fill:#407BFF"></path><path d="M178.22,232.85a54.85,54.85,0,0,1,12.89,0,56.32,56.32,0,0,1-12.89,0Z" style="fill:#407BFF"></path><path d="M178.22,245.74a49.77,49.77,0,0,1,6.44-.37,48.11,48.11,0,0,1,6.45.37,54.85,54.85,0,0,1-12.89,0Z" style="fill:#407BFF"></path><path d="M178.22,258.64a54.85,54.85,0,0,1,12.89,0,56.32,56.32,0,0,1-12.89,0Z" style="fill:#407BFF"></path><path d="M178.22,271.53a54.85,54.85,0,0,1,12.89,0,48.11,48.11,0,0,1-6.45.37A49.77,49.77,0,0,1,178.22,271.53Z" style="fill:#407BFF"></path><path d="M178.22,284.42a56.32,56.32,0,0,1,12.89,0,54.85,54.85,0,0,1-12.89,0Z" style="fill:#407BFF"></path><path d="M178.22,297.32a49.79,49.79,0,0,1,6.44-.38,48.12,48.12,0,0,1,6.45.38,48.11,48.11,0,0,1-6.45.37A49.77,49.77,0,0,1,178.22,297.32Z" style="fill:#407BFF"></path><path d="M178.22,310.21a56.32,56.32,0,0,1,12.89,0,54.85,54.85,0,0,1-12.89,0Z" style="fill:#407BFF"></path><path d="M178.22,323.11a54.85,54.85,0,0,1,12.89,0,56.32,56.32,0,0,1-12.89,0Z" style="fill:#407BFF"></path><path d="M178.22,336a49.77,49.77,0,0,1,6.44-.37,48.11,48.11,0,0,1,6.45.37,48.12,48.12,0,0,1-6.45.38A49.79,49.79,0,0,1,178.22,336Z" style="fill:#407BFF"></path><polygon points="232.98 142.59 233.16 167.26 233.22 191.94 233.35 241.29 233.23 290.64 233.16 315.31 232.98 339.99 232.79 315.31 232.73 290.64 232.6 241.29 232.73 191.94 232.79 167.26 232.98 142.59" style="fill:#ebebeb"></polygon><polygon points="274.84 142.59 275.02 167.26 275.09 191.94 275.22 241.29 275.09 290.64 275.02 315.31 274.84 339.99 274.66 315.31 274.59 290.64 274.47 241.29 274.59 191.94 274.66 167.26 274.84 142.59" style="fill:#ebebeb"></polygon><polygon points="316.71 142.59 316.89 167.26 316.95 191.94 317.08 241.29 316.96 290.64 316.89 315.31 316.71 339.99 316.52 315.31 316.46 290.64 316.33 241.29 316.46 191.94 316.52 167.26 316.71 142.59" style="fill:#ebebeb"></polygon><polygon points="358.57 142.59 358.75 167.26 358.82 191.94 358.94 241.29 358.82 290.64 358.75 315.31 358.57 339.99 358.39 315.31 358.32 290.64 358.2 241.29 358.32 191.94 358.39 167.26 358.57 142.59" style="fill:#ebebeb"></polygon><polygon points="400.44 142.59 400.62 167.26 400.68 191.94 400.81 241.29 400.69 290.64 400.62 315.31 400.44 339.99 400.25 315.31 400.19 290.64 400.06 241.29 400.19 191.94 400.25 167.26 400.44 142.59" style="fill:#ebebeb"></polygon><polygon points="442.3 142.59 442.48 167.26 442.55 191.94 442.68 241.29 442.55 290.64 442.48 315.31 442.3 339.99 442.12 315.31 442.05 290.64 441.93 241.29 442.05 191.94 442.12 167.26 442.3 142.59" style="fill:#ebebeb"></polygon><polygon points="484.17 142.59 484.35 167.26 484.41 191.94 484.54 241.29 484.42 290.64 484.35 315.31 484.17 339.99 483.98 315.31 483.92 290.64 483.79 241.29 483.92 191.94 483.98 167.26 484.17 142.59" style="fill:#ebebeb"></polygon><polygon points="526.03 142.59 526.21 167.26 526.28 191.94 526.4 241.29 526.28 290.64 526.21 315.31 526.03 339.99 525.85 315.31 525.78 290.64 525.66 241.29 525.78 191.94 525.85 167.26 526.03 142.59" style="fill:#ebebeb"></polygon><polygon points="567.89 142.59 568.08 167.26 568.14 191.94 568.27 241.29 568.14 290.64 568.08 315.31 567.89 339.99 567.71 315.31 567.65 290.64 567.52 241.29 567.65 191.94 567.71 167.26 567.89 142.59" style="fill:#ebebeb"></polygon><polygon points="190.96 142.59 240.89 142.4 290.82 142.34 390.69 142.21 490.56 142.34 540.49 142.4 590.43 142.59 540.49 142.77 490.56 142.84 390.69 142.96 290.82 142.83 240.89 142.77 190.96 142.59" style="fill:#ebebeb"></polygon><polygon points="190.96 155.48 240.89 155.3 290.82 155.23 390.69 155.11 490.56 155.23 540.49 155.3 590.43 155.48 540.49 155.66 490.56 155.73 390.69 155.85 290.82 155.73 240.89 155.66 190.96 155.48" style="fill:#ebebeb"></polygon><polygon points="190.96 168.37 240.89 168.19 290.82 168.13 390.69 168 490.56 168.13 540.49 168.19 590.43 168.37 540.49 168.56 490.56 168.62 390.69 168.75 290.82 168.62 240.89 168.56 190.96 168.37" style="fill:#ebebeb"></polygon><polygon points="190.96 181.27 240.89 181.09 290.82 181.02 390.69 180.9 490.56 181.02 540.49 181.09 590.43 181.27 540.49 181.45 490.56 181.52 390.69 181.64 290.82 181.52 240.89 181.45 190.96 181.27" style="fill:#ebebeb"></polygon><polygon points="190.96 194.16 240.89 193.98 290.82 193.91 390.69 193.79 490.56 193.91 540.49 193.98 590.43 194.16 540.49 194.35 490.56 194.41 390.69 194.54 290.82 194.41 240.89 194.34 190.96 194.16" style="fill:#ebebeb"></polygon><polygon points="190.96 207.06 240.89 206.88 290.82 206.81 390.69 206.68 490.56 206.81 540.49 206.87 590.43 207.06 540.49 207.24 490.56 207.31 390.69 207.43 290.82 207.31 240.89 207.24 190.96 207.06" style="fill:#ebebeb"></polygon><polygon points="190.96 219.95 240.89 219.77 290.82 219.7 390.69 219.58 490.56 219.7 540.49 219.77 590.43 219.95 540.49 220.13 490.56 220.2 390.69 220.33 290.82 220.2 240.89 220.13 190.96 219.95" style="fill:#ebebeb"></polygon><polygon points="190.96 232.85 240.89 232.66 290.82 232.6 390.69 232.47 490.56 232.6 540.49 232.66 590.43 232.85 540.49 233.03 490.56 233.1 390.69 233.22 290.82 233.09 240.89 233.03 190.96 232.85" style="fill:#ebebeb"></polygon><polygon points="190.96 245.74 240.89 245.56 290.82 245.49 390.69 245.37 490.56 245.49 540.49 245.56 590.43 245.74 540.49 245.92 490.56 245.99 390.69 246.12 290.82 245.99 240.89 245.92 190.96 245.74" style="fill:#ebebeb"></polygon><polygon points="190.96 258.63 240.89 258.45 290.82 258.39 390.69 258.26 490.56 258.39 540.49 258.45 590.43 258.63 540.49 258.82 490.56 258.88 390.69 259.01 290.82 258.88 240.89 258.82 190.96 258.63" style="fill:#ebebeb"></polygon><polygon points="190.96 271.53 240.89 271.35 290.82 271.28 390.69 271.15 490.56 271.28 540.49 271.35 590.43 271.53 540.49 271.71 490.56 271.78 390.69 271.9 290.82 271.78 240.89 271.71 190.96 271.53" style="fill:#ebebeb"></polygon><polygon points="190.96 284.42 240.89 284.24 290.82 284.18 390.69 284.05 490.56 284.18 540.49 284.24 590.43 284.42 540.49 284.61 490.56 284.67 390.69 284.8 290.82 284.67 240.89 284.61 190.96 284.42" style="fill:#ebebeb"></polygon><polygon points="190.96 297.32 240.89 297.14 290.82 297.07 390.69 296.94 490.56 297.07 540.49 297.13 590.43 297.32 540.49 297.5 490.56 297.57 390.69 297.69 290.82 297.57 240.89 297.5 190.96 297.32" style="fill:#ebebeb"></polygon><polygon points="190.96 310.21 240.89 310.03 290.82 309.96 390.69 309.84 490.56 309.96 540.49 310.03 590.43 310.21 540.49 310.4 490.56 310.46 390.69 310.59 290.82 310.46 240.89 310.39 190.96 310.21" style="fill:#ebebeb"></polygon><polygon points="190.96 323.11 240.89 322.93 290.82 322.86 390.69 322.73 490.56 322.86 540.49 322.92 590.43 323.11 540.49 323.29 490.56 323.36 390.69 323.48 290.82 323.36 240.89 323.29 190.96 323.11" style="fill:#ebebeb"></polygon><polygon points="190.96 336 240.89 335.82 290.82 335.75 390.69 335.63 490.56 335.75 540.49 335.82 590.43 336 540.49 336.19 490.56 336.25 390.69 336.38 290.82 336.25 240.89 336.18 190.96 336" style="fill:#ebebeb"></polygon><rect x="377.8" y="-44.18" width="25.79" height="399.31" transform="translate(235.21 546.17) rotate(-90)" style="fill:#407BFF"></rect><path d="M294.69,152.36c8-.23,16-.32,24-.49l24-.28c16-.16,32-.15,48-.23,16,.08,32,.07,48,.23l24,.28c8,.16,16,.26,24,.49-8,.22-16,.32-24,.49l-24,.28c-16,.16-32,.15-48,.23-16-.09-32-.07-48-.24l-24-.27C310.7,152.68,302.69,152.58,294.69,152.36Z" style="fill:#fff"></path><path d="M313.05,158.6c6.48-.22,12.95-.32,19.43-.49l19.43-.27c12.95-.17,25.91-.15,38.86-.24,13,.08,25.9.07,38.86.23l19.43.28c6.47.17,12.95.27,19.43.49-6.48.23-13,.33-19.43.49l-19.43.28c-13,.16-25.91.15-38.86.23-12.95-.08-25.91-.07-38.86-.23l-19.43-.28C326,158.92,319.53,158.83,313.05,158.6Z" style="fill:#fff"></path><path d="M241.33,187.72q13.53-.58,27.08-.78c9-.16,18-.2,27.08-.22s18.06.06,27.08.22,18.06.39,27.09.78q-13.55.57-27.09.78c-9,.16-18.05.2-27.08.22s-18.05-.07-27.08-.23S250.35,188.1,241.33,187.72Z" style="fill:#fff"></path><path d="M364.84,187.72a64.29,64.29,0,0,1,7.15-.78c2.39-.16,4.77-.2,7.16-.22s4.77.06,7.15.22a61.93,61.93,0,0,1,7.16.78,66.67,66.67,0,0,1-7.16.78c-2.38.16-4.77.2-7.15.22s-4.77-.07-7.16-.23A64.27,64.27,0,0,1,364.84,187.72Z" style="fill:#fff"></path><path d="M241.33,200.61c5.07-.41,10.15-.63,15.23-.78s10.16-.2,15.24-.22,10.16.06,15.24.22,10.15.36,15.23.78c-5.08.42-10.16.63-15.23.78s-10.16.2-15.24.22-10.16-.06-15.24-.22S246.4,201,241.33,200.61Z" style="fill:#a6a6a6"></path><path d="M309.07,200.61c3.16-.41,6.32-.63,9.48-.78s6.32-.2,9.49-.22,6.32.06,9.48.22,6.32.36,9.48.78c-3.16.42-6.32.63-9.48.78s-6.32.2-9.48.22-6.33-.06-9.49-.22S312.23,201,309.07,200.61Z" style="fill:#a6a6a6"></path><path d="M366.8,200.61a52.67,52.67,0,0,1,6.35-.78c2.12-.16,4.24-.2,6.35-.22s4.24.06,6.36.22a51.19,51.19,0,0,1,6.35.78,51.19,51.19,0,0,1-6.35.78c-2.12.16-4.24.2-6.36.22s-4.23-.06-6.35-.22A52.67,52.67,0,0,1,366.8,200.61Z" style="fill:#a6a6a6"></path><path d="M371.66,213.5a33.77,33.77,0,0,1,5.14-.77c1.71-.15,3.42-.23,5.14-.22s3.42.07,5.13.21a34.89,34.89,0,0,1,5.14.78,33.64,33.64,0,0,1-5.14.79c-1.71.14-3.42.22-5.13.21s-3.43-.07-5.14-.22A32.6,32.6,0,0,1,371.66,213.5Z" style="fill:#a6a6a6"></path><path d="M376.47,226.4a21,21,0,0,1,3.94-.78,37,37,0,0,1,3.93-.22,32.64,32.64,0,0,1,3.94.22,20.25,20.25,0,0,1,3.93.78,20.25,20.25,0,0,1-3.93.78,35.3,35.3,0,0,1-7.87,0A21,21,0,0,1,376.47,226.4Z" style="fill:#a6a6a6"></path><path d="M366.8,239.29a50.71,50.71,0,0,1,6.35-.77c2.12-.16,4.24-.21,6.35-.23s4.24.06,6.36.22a53.17,53.17,0,0,1,6.35.78,49.36,49.36,0,0,1-6.35.78c-2.12.16-4.24.21-6.36.22s-4.23-.06-6.35-.22A50.73,50.73,0,0,1,366.8,239.29Z" style="fill:#a6a6a6"></path><path d="M371.66,252.19a33.8,33.8,0,0,1,5.14-.78c1.71-.15,3.42-.22,5.14-.22s3.42.07,5.13.22a32.42,32.42,0,0,1,5.14.78,34.89,34.89,0,0,1-5.14.78c-1.71.14-3.42.22-5.13.22s-3.43-.08-5.14-.22A35.1,35.1,0,0,1,371.66,252.19Z" style="fill:#a6a6a6"></path><path d="M366.8,265.08a50.71,50.71,0,0,1,6.35-.77c2.12-.16,4.24-.21,6.35-.23s4.24.06,6.36.22a53.17,53.17,0,0,1,6.35.78,49.36,49.36,0,0,1-6.35.78c-2.12.16-4.24.2-6.36.22s-4.23-.06-6.35-.22A50.73,50.73,0,0,1,366.8,265.08Z" style="fill:#a6a6a6"></path><path d="M241.33,213.5q8.46-.57,16.93-.77c5.65-.16,11.29-.2,16.94-.22s11.29.06,16.93.21,11.29.4,16.94.78q-8.47.58-16.94.79c-5.64.15-11.29.2-16.93.21s-11.29-.06-16.94-.22S247,213.89,241.33,213.5Z" style="fill:#a6a6a6"></path><path d="M241.33,226.4q11.26-.59,22.53-.78c7.52-.16,15-.2,22.54-.22s15,.06,22.54.22,15,.39,22.53.78q-11.27.58-22.53.78c-7.52.16-15,.2-22.54.22s-15-.06-22.54-.22S248.84,226.79,241.33,226.4Z" style="fill:#a6a6a6"></path><path d="M241.33,239.29c5.07-.41,10.15-.63,15.23-.77s10.16-.21,15.24-.23,10.16.06,15.24.22,10.15.37,15.23.78c-5.08.42-10.16.64-15.23.78s-10.16.21-15.24.22-10.16-.06-15.24-.22S246.4,239.71,241.33,239.29Z" style="fill:#a6a6a6"></path><path d="M241.33,252.19q9.42-.58,18.84-.78c6.28-.16,12.56-.2,18.85-.22s12.56.06,18.84.22,12.56.39,18.85.78q-9.43.59-18.85.78c-6.28.16-12.56.2-18.84.22s-12.57-.07-18.85-.22S247.61,252.57,241.33,252.19Z" style="fill:#a6a6a6"></path><path d="M241.33,265.08a75.22,75.22,0,0,1,7.76-.77c2.59-.16,5.18-.21,7.77-.23s5.18.06,7.77.22,5.17.37,7.76.78a73.09,73.09,0,0,1-7.76.78c-2.59.16-5.18.2-7.77.22s-5.18-.06-7.77-.22A75.24,75.24,0,0,1,241.33,265.08Z" style="fill:#a6a6a6"></path><path d="M241.33,290.87q13.53-.58,27.08-.78c9-.16,18-.2,27.08-.22s18.06.06,27.08.22,18.06.39,27.09.78q-13.55.58-27.09.78c-9,.16-18.05.2-27.08.22s-18.05-.06-27.08-.22S250.35,291.26,241.33,290.87Z" style="fill:#fff"></path><path d="M364.84,290.87a66.76,66.76,0,0,1,7.15-.78c2.39-.16,4.77-.2,7.16-.22s4.77.06,7.15.22a64.21,64.21,0,0,1,7.16.78,64.21,64.21,0,0,1-7.16.78c-2.38.16-4.77.2-7.15.22s-4.77-.06-7.16-.22A66.76,66.76,0,0,1,364.84,290.87Z" style="fill:#fff"></path><path d="M241.33,303.77c5.07-.42,10.15-.63,15.23-.78s10.16-.2,15.24-.22,10.16.06,15.24.22,10.15.36,15.23.78c-5.08.41-10.16.63-15.23.78s-10.16.2-15.24.21-10.16-.06-15.24-.22S246.4,304.18,241.33,303.77Z" style="fill:#a6a6a6"></path><path d="M309.07,303.77c3.16-.42,6.32-.63,9.48-.78s6.32-.2,9.49-.22,6.32.06,9.48.22,6.32.36,9.48.78c-3.16.41-6.32.63-9.48.78s-6.32.2-9.48.21-6.33-.06-9.49-.22S312.23,304.18,309.07,303.77Z" style="fill:#a6a6a6"></path><path d="M366.8,303.77a50.73,50.73,0,0,1,6.35-.78c2.12-.16,4.24-.2,6.35-.22s4.24.06,6.36.22a49.36,49.36,0,0,1,6.35.78,53.17,53.17,0,0,1-6.35.78c-2.12.15-4.24.2-6.36.21s-4.23-.06-6.35-.22A50.71,50.71,0,0,1,366.8,303.77Z" style="fill:#a6a6a6"></path><path d="M371.66,316.66a35.1,35.1,0,0,1,5.14-.78c1.71-.14,3.42-.22,5.14-.22s3.42.07,5.13.22a33.61,33.61,0,0,1,5.14.78,33.61,33.61,0,0,1-5.14.78c-1.71.15-3.42.23-5.13.22s-3.43-.08-5.14-.22A35.1,35.1,0,0,1,371.66,316.66Z" style="fill:#a6a6a6"></path><path d="M241.33,316.66q8.46-.59,16.93-.78c5.65-.16,11.29-.2,16.94-.22s11.29.06,16.93.22,11.29.39,16.94.78q-8.47.58-16.94.78c-5.64.16-11.29.2-16.93.22s-11.29-.06-16.94-.22S247,317.05,241.33,316.66Z" style="fill:#a6a6a6"></path><path d="M526,235.54a38.68,38.68,0,0,1-23.54,35.57l-15.11-35.57Z" style="fill:#407BFF"></path><path d="M480.91,232.88,496,268.46s0,0-.08,0c-1.18.49-2.37.93-3.55,1.3a38.66,38.66,0,1,1,27.17-36.91Z" style="fill:#a6a6a6"></path><path d="M480.93,232.88l-25.18,29.29a38.63,38.63,0,1,1,63.8-29.29Z" style="fill:#455a64"></path><rect x="442.3" y="288.2" width="5.42" height="5.42" style="fill:#455a64"></rect><rect x="442.3" y="301.16" width="5.42" height="5.42" style="fill:#a6a6a6"></rect><rect x="442.3" y="314.12" width="5.42" height="5.42" style="fill:#407BFF"></rect><path d="M453.24,289.12c3.45-.41,6.89-.63,10.33-.78s6.89-.2,10.33-.22,6.89.06,10.33.22,6.89.36,10.34.78c-3.45.42-6.89.63-10.34.78s-6.88.2-10.33.22-6.88-.06-10.33-.22S456.69,289.53,453.24,289.12Z" style="fill:#a6a6a6"></path><path d="M442.3,187.72c4.36-.42,8.71-.63,13.07-.78s8.71-.2,13.06-.22,8.71.06,13.07.22,8.71.36,13.07.78c-4.36.41-8.72.63-13.07.78s-8.71.2-13.07.22-8.71-.07-13.06-.23S446.66,188.13,442.3,187.72Z" style="fill:#a6a6a6"></path><path d="M442.3,184q9.19-.57,18.39-.77c6.13-.16,12.26-.21,18.4-.23s12.26.06,18.39.22,12.26.4,18.39.78q-9.19.58-18.39.78c-6.13.16-12.26.21-18.39.22s-12.27-.06-18.4-.22S448.43,184.35,442.3,184Z" style="fill:#a6a6a6"></path><path d="M453.24,292.7a60.55,60.55,0,0,1,6.92-.78c2.31-.16,4.62-.2,6.93-.22s4.61.06,6.92.22a58.15,58.15,0,0,1,6.92.78,62.61,62.61,0,0,1-6.92.78c-2.31.16-4.62.2-6.92.22s-4.62-.07-6.93-.23A60.52,60.52,0,0,1,453.24,292.7Z" style="fill:#a6a6a6"></path><path d="M453.24,302.08a29.79,29.79,0,0,1,4.72-.78c1.57-.14,3.14-.22,4.72-.22a46.73,46.73,0,0,1,4.72.22,28.57,28.57,0,0,1,4.71.78,28.57,28.57,0,0,1-4.71.78c-1.58.14-3.15.22-4.72.22s-3.15-.08-4.72-.22A29.79,29.79,0,0,1,453.24,302.08Z" style="fill:#a6a6a6"></path><path d="M453.24,305.66a76.3,76.3,0,0,1,8-.78c2.65-.16,5.3-.2,7.95-.22s5.3.06,8,.21a79.24,79.24,0,0,1,7.95.79c-2.65.41-5.3.63-7.95.78s-5.31.2-8,.21-5.3-.06-7.95-.22A79.09,79.09,0,0,1,453.24,305.66Z" style="fill:#a6a6a6"></path><path d="M453.24,315c2.85-.42,5.69-.63,8.54-.78s5.69-.2,8.53-.22,5.69.06,8.54.22,5.69.36,8.53.78c-2.84.41-5.69.63-8.53.78s-5.69.2-8.54.22-5.69-.07-8.53-.22S456.09,315.45,453.24,315Z" style="fill:#a6a6a6"></path><path d="M453.24,318.61c3.72-.41,7.44-.63,11.16-.77s7.44-.21,11.16-.23,7.43.06,11.15.22,7.44.37,11.16.78c-3.72.42-7.44.64-11.16.78s-7.43.21-11.15.22-7.44-.06-11.16-.22S457,319,453.24,318.61Z" style="fill:#a6a6a6"></path></g></svg>